<?xml version="1.0" encoding="utf-8"?>
<!-- Generator: Adobe Illustrator 26.0.0, SVG Export Plug-In . SVG Version: 6.00 Build 0)  -->
<svg version="1.1" id="Capa_1" xmlns="http://www.w3.org/2000/svg" xmlns:xlink="http://www.w3.org/1999/xlink" x="0px" y="0px"
	 viewBox="0 0 70 70" style="enable-background:new 0 0 70 70;" xml:space="preserve">
<style type="text/css">
	.st0{fill:#FFD4A1;}
	.st1{fill:#3399CC;}
	.st2{fill:#006699;}
	.st3{fill:#FFAD84;}
	.st4{fill:#003466;}
</style>
<g>
	<path class="st0" d="M61.42,2.38c-8.5-4.8-19.3-0.06-21.82,9.58c-0.75,2.87-1.53,5.71-3.24,8.19c-0.15,0.21-0.36,0.38-0.54,0.57
		c-0.68,1.38-1.71,2.48-2.88,3.45c-1.21,0.99-2.45,1.93-3.85,2.64c-0.7,0.35-0.88,0.8-0.59,1.61c0.58,1.61,1.28,3.17,2.18,4.6
		c1.75,2.78,3.82,5.28,6.98,6.59c1.36-6.46,4.94-11.49,9.95-15.63c2.79-2.3,6.07-3.76,9.23-5.44c5.68-3.01,7.89-7.63,5.26-13.98
		C61.82,3.88,61.14,3.26,61.42,2.38z"/>
	<path class="st1" d="M37.66,39.61c-3.16-1.31-5.23-3.81-6.98-6.59c-0.9-1.43-1.6-2.98-2.18-4.6c-0.29-0.81-0.11-1.26,0.59-1.61
		c1.4-0.71,2.65-1.65,3.85-2.64c1.17-0.96,2.2-2.06,2.88-3.45c-5.33-4.03-10.97-7.36-17.87-7.79c-0.43-0.03-0.9-0.14-1.28,0.23
		c-0.07,1.84,0.07,3.64,0.66,5.42c2.32,7,6.65,12.71,11.58,17.99c4.48,4.79,9.57,8.86,15.32,12.04c4.09,2.27,8.37,4.04,13.2,3.91
		c0.53-1.95-0.01-3.81-0.6-5.62c-1.56-4.81-4.09-9.1-7.33-12.98c-2.7,1.55-4.65,3.84-6.27,6.43c-0.26,0.42-0.45,0.95-1.07,0.81
		C40.61,40.81,38.99,40.62,37.66,39.61z"/>
	<path class="st2" d="M57.44,52.53c-4.82,0.13-9.1-1.64-13.2-3.91c-5.75-3.18-10.84-7.25-15.32-12.04
		c-4.94-5.29-9.26-11-11.58-17.99c-0.59-1.77-0.73-3.58-0.66-5.42c-3.98,0.1-5.76,3.46-5.52,6.97c0.2,3,1.26,5.75,2.56,8.42
		c0.2,0.41,0.38,0.82,0.28,1.29c0.56,0.05,0.68,0.55,0.9,0.91C20.61,40.29,28.35,47.8,37.8,53.6c0.72,0.44,1.58,0.65,2.14,1.35
		c2.65,0.95,5.15,2.3,7.96,2.79c1.68,0.3,3.37,0.43,5.05,0.1C55.52,57.34,57.15,55.39,57.44,52.53z"/>
	<path class="st3" d="M37.66,39.61c1.33,1.01,2.95,1.2,4.5,1.55c0.63,0.14,0.81-0.39,1.07-0.81c1.63-2.59,3.57-4.89,6.27-6.43
		c2.31-1.84,5.04-2.67,7.87-3.15c5.17-0.88,8.67-3.88,10.77-8.54c3.34-7.4,0.27-16.33-6.72-19.85c-0.28,0.88,0.4,1.5,0.68,2.19
		c2.63,6.35,0.41,10.97-5.26,13.98c-3.16,1.68-6.44,3.14-9.23,5.44C42.6,28.12,39.01,33.15,37.66,39.61z"/>
	<path class="st1" d="M11.61,39.3C4.46,40.09-0.01,45.94,0.55,52.97c0.28,3.56,1.67,6.76,3.92,9.53c3.01,3.72,6.86,6.04,11.62,6.83
		c7.59,1.25,14.54-3.97,14.61-11.65c-1.53-0.55-3.07-1.11-4.6-1.66c-0.29,6.77-5.85,9.92-11.67,8.24c-4.37-1.26-7.35-4.24-8.66-8.6
		c-1.95-6.48,2.41-11.75,7.95-11.49c1.08-0.26,2.11,0.04,3.14,0.3c1.35,0.34,2.6-0.27,2.96-1.5c0.34-1.15-0.37-2.4-1.59-2.82
		C16.09,39.39,13.87,39.2,11.61,39.3z"/>
	<path class="st4" d="M26.1,56.02c1.53,0.55,3.07,1.11,4.6,1.66c1.85,0.26,3.71,0.49,5.55-0.04c1.55-0.45,2.84-1.25,3.68-2.68
		c-0.55-0.7-1.42-0.91-2.14-1.35c-9.45-5.81-17.19-13.32-22.91-22.86c-0.22-0.36-0.34-0.87-0.9-0.91c-2.95,2.16-3.13,5.18-2.6,8.42
		c0.06,0.35,0.15,0.7,0.23,1.05c2.26-0.1,4.47,0.08,6.62,0.83c1.23,0.43,1.93,1.68,1.59,2.82c-0.36,1.23-1.61,1.84-2.96,1.5
		c-1.03-0.26-2.06-0.56-3.14-0.3c0.32,0.53,0.62,1.08,0.96,1.6C17.61,50.16,21.5,53.48,26.1,56.02z"/>
</g>
</svg>
