<svg width="474" height="624" viewBox="0 0 474 624" fill="none" xmlns="http://www.w3.org/2000/svg">
<g clip-path="url(#clip0_10_748)">
<path d="M136.761 446.189C127.285 463.214 128.093 484.914 144.723 506.66C145.283 507.363 145.759 508.13 146.142 508.943C149.612 516.659 141.788 521.251 133.978 517.867C133.462 517.642 132.904 517.53 132.341 517.539C131.778 517.547 131.224 517.676 130.715 517.917C130.207 518.158 129.756 518.505 129.393 518.934C129.03 519.364 128.764 519.866 128.612 520.407C126.131 529.485 137.811 540.127 150.204 540.127L182.852 535.334V481.655L174.21 423.183C158.283 426.887 143.862 432.32 136.761 446.189Z" fill="#FF5831"/>
<g opacity="0.25">
<path d="M136.761 446.189C127.285 463.214 128.093 484.914 144.723 506.66C145.283 507.363 145.759 508.13 146.142 508.943C149.612 516.659 141.788 521.251 133.978 517.867C133.462 517.642 132.904 517.53 132.341 517.539C131.778 517.547 131.224 517.676 130.715 517.917C130.207 518.158 129.756 518.505 129.393 518.934C129.03 519.364 128.764 519.866 128.612 520.407C126.131 529.485 137.811 540.127 150.204 540.127L182.852 535.334V481.655L174.21 423.183C158.283 426.887 143.862 432.32 136.761 446.189Z" fill="#390075"/>
</g>
<path d="M128.649 532.985C125.343 528.662 124.18 523.883 125.37 519.525C125.644 518.524 126.131 517.593 126.798 516.797C127.464 516 128.294 515.355 129.232 514.907C130.179 514.453 131.212 514.208 132.261 514.187C133.311 514.166 134.353 514.372 135.316 514.788C138.616 516.218 141.629 515.668 142.896 514.386C143.813 513.46 143.874 512.085 143.077 510.32C142.798 509.741 142.453 509.196 142.051 508.694C125.92 487.581 122.902 464.227 133.793 444.611C141.731 429.167 157.54 423.615 173.445 419.917C173.899 419.81 174.37 419.799 174.829 419.884C175.287 419.969 175.723 420.148 176.108 420.41C176.494 420.672 176.82 421.012 177.067 421.407C177.314 421.802 177.475 422.243 177.542 422.704L186.184 481.176C186.207 481.338 186.219 481.501 186.218 481.665V535.344C186.218 536.15 185.927 536.93 185.398 537.539C184.869 538.149 184.137 538.548 183.338 538.664L150.69 543.457C150.528 543.48 150.364 543.491 150.2 543.491C141.988 543.482 133.527 539.362 128.649 532.985ZM179.489 481.902L171.423 427.313C158.333 430.65 145.881 435.748 139.755 447.715C139.735 447.751 139.718 447.786 139.699 447.818C129.993 465.264 132.726 485.434 147.398 504.626C148.114 505.533 148.723 506.521 149.211 507.568C151.143 511.867 150.573 516.178 147.675 519.102C144.218 522.601 138.166 523.344 132.634 520.944C132.555 520.91 132.469 520.893 132.384 520.895C132.298 520.897 132.213 520.918 132.136 520.956C132.066 520.987 132.004 521.033 131.954 521.091C131.904 521.149 131.868 521.217 131.848 521.291C131.003 524.387 132.824 527.393 133.986 528.912C137.535 533.553 143.93 536.691 149.962 536.772L179.483 532.439L179.489 481.902Z" fill="#390075"/>
<path d="M19.9863 371.537C-2.39676 398.357 3.70074 447.118 37.8851 467.909C39.7754 469.058 41.7241 470.107 43.7233 471.053C50.7715 474.38 58.4341 476.182 66.1928 476.814C94.1837 479.086 116.663 472.146 135.627 456.905C135.627 456.905 135.627 456.896 135.647 456.896C141.677 452.065 147.362 446.371 152.739 439.881C152.854 439.747 152.96 439.613 153.075 439.479C149.733 462.407 152.691 484.531 163.638 505.619C168.794 525.365 163.167 538.2 145.374 535.832C144.582 535.707 143.77 535.804 143.03 536.113C142.29 536.421 141.65 536.929 141.182 537.579C140.714 538.229 140.436 538.996 140.38 539.795C140.323 540.593 140.489 541.392 140.861 542.101C148.235 556.48 172.068 561.445 187.48 551.236C187.768 551.054 188.056 550.862 188.325 550.661C189.128 550.092 189.897 549.477 190.63 548.821C192.851 546.873 194.753 544.589 196.266 542.053L210.67 543.012C229.644 531.73 237.787 495.717 247.159 462.494L262.158 461.842L263.819 461.775L264.558 461.736L266.613 461.65L327.492 459.004L399.702 455.87L401.785 455.784C417.687 457.73 431.505 455.41 442.461 449.822C461.733 439.958 472.142 419.972 469.453 395.251C469.041 391.378 468.154 387.569 466.813 383.912C465.293 379.725 463.115 375.806 460.36 372.304C443.786 351.378 412.54 350.736 408.853 379.31C408.695 380.657 408.915 382.02 409.488 383.249C410.061 384.478 410.965 385.523 412.098 386.27C413.322 387.082 414.758 387.515 416.227 387.516C418.019 387.527 419.75 386.867 421.077 385.666C422.997 383.912 424.889 382.522 426.752 381.678C427.372 381.394 428.018 381.169 428.682 381.007C436.364 385.8 440.205 405.929 421 410.722C407.336 412.543 395.515 403.063 384.511 388.676C400.067 361.232 393.153 329.245 367.227 309.116C381.63 279.401 380.862 240.704 368.187 216.136L354.744 194.09C372.834 175.685 380.67 134.659 317.294 97.2758C254.457 60.9083 170.023 36.1681 127.081 4.69885C126.265 4.10288 125.329 3.69149 124.337 3.49327C123.345 3.29504 122.322 3.31474 121.339 3.551C120.356 3.78725 119.436 4.23439 118.643 4.86134C117.851 5.48829 117.204 6.28002 116.749 7.1815C97.3333 45.4661 68.6126 73.82 42.4462 106.171C40.3721 108.73 38.2404 111.251 36.0223 113.686C27.4089 123.099 20.284 133.193 14.9259 143.468H14.9163C-8.44624 188.175 1.36737 236.237 66.2793 245.65C66.7306 245.717 67.1819 245.784 67.6332 245.842C72.2327 281.404 82.4016 311.062 102.816 329.868C102.931 329.983 103.047 330.089 103.162 330.194C96.3058 339.099 91.6967 345.704 90.8133 354.58C90.1891 360.868 91.6967 367.194 94.8463 372.687C99.6667 381.131 105.963 389.333 113.734 397.293C107.867 409.074 99.321 419.215 87.9806 427.66C81.5176 432.453 73.7659 435.208 65.7223 435.568C61.4109 435.76 57.2435 435.808 53.2393 435.635C53.1997 435.608 53.1641 435.576 53.1337 435.539C49.8369 432.787 47.0429 429.486 44.8756 425.781C36.464 411.432 38.7589 393.248 51.3188 385.8C56.6097 384.161 61.3245 385.877 65.5015 390.669C68.0461 393.593 72.1463 394.858 75.7184 393.344C79.4729 391.743 82.1712 387.976 81.643 382.809C81.4492 381.191 80.968 379.62 80.2219 378.17C75.3151 368.095 67.2971 361.903 58.2133 359.248C44.2227 355.155 29.3006 360.37 19.9863 371.537Z" fill="#FF5831"/>
<g opacity="0.4">
<path d="M144.318 446.591C144.433 446.457 144.538 446.323 144.654 446.189C144.506 447.193 144.389 448.194 144.27 449.195C141.542 451.913 138.672 454.483 135.67 456.896C135.66 456.896 135.66 456.905 135.651 456.905C134.168 458.096 132.657 459.217 131.13 460.308C135.873 456.081 140.282 451.495 144.318 446.591Z" fill="white"/>
<path d="M140.4 539.667C140.471 539.086 140.657 538.524 140.947 538.016C141.238 537.507 141.627 537.062 142.091 536.705C142.556 536.348 143.087 536.087 143.654 535.937C144.221 535.787 144.812 535.752 145.393 535.832C149.057 536.319 152.199 536.153 154.844 535.422C152.407 540.06 147.93 542.732 141.278 542.813C141.145 542.577 141.003 542.343 140.88 542.101C140.488 541.353 140.321 540.507 140.4 539.667Z" fill="white"/>
<path d="M58.1941 359.248C67.2779 361.903 75.2863 368.095 80.2027 378.17C80.9488 379.62 81.43 381.191 81.6239 382.809C82.152 387.966 79.4537 391.743 75.6992 393.344C74.7739 393.734 73.7841 393.949 72.7801 393.978C73.2139 392.534 73.351 391.017 73.1834 389.519C72.9896 387.901 72.5083 386.33 71.7622 384.88C66.8554 374.805 58.8375 368.613 49.7536 365.958C40.1244 363.138 30.0458 364.739 21.661 369.66C31.0271 359.798 45.0293 355.393 58.1941 359.248Z" fill="white"/>
<path d="M57.2627 442.287C52.9513 442.479 48.7838 442.527 44.7797 442.354C44.7401 442.328 44.7045 442.295 44.674 442.259C41.3773 439.507 38.5832 436.205 36.416 432.501C28.0043 418.151 30.2993 399.967 42.8592 392.519C43.4013 392.354 43.9528 392.221 44.5108 392.121C38.2481 401.064 38.2923 414.595 44.8565 425.791C47.0237 429.495 49.8177 432.797 53.1145 435.549C53.145 435.586 53.1805 435.618 53.2201 435.645C57.2243 435.817 61.3917 435.779 65.7032 435.577C73.0319 435.241 80.131 432.922 86.2407 428.868C84.1179 430.776 81.8774 432.611 79.519 434.374C73.0573 439.169 65.3062 441.925 57.2627 442.287Z" fill="white"/>
<path d="M420.99 410.722C422.075 410.453 423.14 410.112 424.18 409.704C422.058 413.117 418.367 415.981 412.55 417.432C398.886 419.253 387.065 409.773 376.061 395.385C379.176 389.563 384.88 376.945 384.092 360.36C382.907 335.438 367.906 319.413 363.856 315.346C371.699 300.925 376.357 284.994 377.516 268.625C378.676 252.256 376.31 235.829 370.578 220.45C365.457 211.503 360.335 202.557 355.214 193.61C357.218 188.255 358.34 182.611 358.537 176.897C358.802 168.389 361.801 134.638 308.844 103.986C246.007 67.6182 161.573 42.878 118.631 11.4087C117.633 10.6757 116.456 10.2253 115.222 10.1051C115.733 9.13503 116.24 8.16306 116.74 7.1815C117.195 6.28002 117.841 5.48829 118.634 4.86134C119.427 4.23439 120.346 3.78725 121.33 3.551C122.313 3.31474 123.336 3.29504 124.327 3.49327C125.319 3.69149 126.255 4.10288 127.072 4.69885C170.013 36.1681 254.447 60.9083 317.285 97.2758C380.66 134.659 372.825 175.685 354.734 194.09L368.177 216.136C380.852 240.704 381.621 279.401 367.217 309.116C393.143 329.245 400.057 361.232 384.501 388.676C395.515 403.063 407.326 412.544 420.99 410.722Z" fill="white"/>
<path d="M238.747 469.194L245.396 468.904C236.727 500.226 228.455 532.443 210.699 543.002L210.176 542.968C223.725 527.57 230.794 497.383 238.747 469.194Z" fill="white"/>
<path d="M187.855 548.754L190.516 548.93C189.824 549.543 189.099 550.119 188.344 550.655C188.066 550.857 187.787 551.048 187.499 551.231C186.687 551.767 185.848 552.254 185.003 552.709C186.063 551.473 187.017 550.15 187.855 548.754Z" fill="white"/>
<path d="M461.003 401.961C460.591 398.088 459.704 394.279 458.363 390.621C456.843 386.434 454.665 382.516 451.91 379.013C441.553 365.937 425.463 360.782 413.952 365.726C424.322 351.802 447.057 355.519 460.35 372.303C463.105 375.806 465.284 379.725 466.803 383.912C468.148 387.569 469.038 391.377 469.453 395.251C471.95 418.118 463.223 436.927 446.648 447.419C457.64 436.48 463.033 420.563 461.003 401.961Z" fill="white"/>
</g>
<path d="M282.567 376.002C291.093 404.196 323.369 403.733 334.483 377.265C342.889 357.948 335.276 329.337 312.852 324.056C297.035 320.423 283.185 334.048 281.036 348.648C280.865 349.709 282.363 350.109 282.764 349.143C287.349 337.495 298.595 326.634 311.571 329.799C328.95 334.525 334.606 357.022 329.388 372.606C323.284 391.25 304.243 398.702 289.751 383.553C287.506 381.176 285.582 378.431 283.903 375.469C283.519 374.723 282.332 375.202 282.559 376.002H282.567Z" fill="#390075"/>
<path d="M316.484 344.168C315.409 342.471 313.53 341.465 311.539 341.313C309.321 341.145 307.352 342.155 305.585 343.403C302.355 345.677 300.037 349.233 298.898 352.977C297.588 357.283 297.441 362.147 298.255 366.566C298.996 370.578 300.871 374.7 304.752 376.535C306.806 377.491 309.146 377.641 311.306 376.956C312.33 376.632 313.242 376.082 314.141 375.505C315.04 374.928 316.081 374.663 316.993 374.134C317.091 374.078 317.205 374.052 317.318 374.06C317.431 374.067 317.54 374.108 317.63 374.177C317.72 374.246 317.787 374.34 317.824 374.448C317.861 374.555 317.865 374.671 317.836 374.78C317.563 375.971 317.375 377.012 316.474 377.932C315.574 378.852 314.41 379.466 313.259 379.935C310.915 380.898 308.333 381.127 305.856 380.591C300.586 379.491 297.035 374.968 295.535 370.034C293.909 364.666 293.928 358.312 295.343 352.916C296.611 348.085 299.419 343.371 303.888 340.878C308.357 338.386 315.159 338.344 317.865 343.371C318.353 344.275 317.035 345.042 316.484 344.174V344.168Z" fill="#390075"/>
<path d="M303.607 377.461C304.183 377.029 304.89 376.972 305.549 376.73C306.392 376.418 307.085 375.91 307.823 375.423C309.247 374.456 310.43 373.175 311.279 371.679C313.2 368.373 313.711 364.288 313.828 360.532C313.951 356.581 313.663 352.166 312.113 348.48C311.439 346.873 310.325 345.311 308.687 344.576C307.016 343.829 305.261 344.287 303.732 345.14C302.964 345.579 302.228 346.073 301.531 346.618C300.909 347.096 300.154 347.65 299.348 347.22C297.748 346.365 299.586 344.747 300.379 344.153C303.139 342.059 306.524 340.602 309.897 342.157C313.236 343.691 314.855 347.234 315.629 350.625C316.533 354.61 316.812 358.711 316.457 362.781C316.1 366.836 315.214 371.048 312.712 374.364C311.623 375.808 310.148 377.184 308.449 377.882C307.193 378.398 304.821 379.075 303.613 378.204C303.55 378.165 303.498 378.111 303.463 378.047C303.427 377.982 303.408 377.91 303.408 377.836C303.408 377.763 303.427 377.69 303.463 377.626C303.498 377.561 303.55 377.507 303.613 377.468L303.607 377.461Z" fill="#390075"/>
<path d="M167.282 559.969C154.284 559.534 142.744 553.122 137.878 543.634C137.235 542.389 136.947 540.992 137.046 539.596C137.144 538.199 137.625 536.856 138.437 535.714C139.256 534.556 140.379 533.645 141.682 533.08C142.985 532.515 144.419 532.318 145.827 532.511C151.855 533.316 156.253 532.21 158.886 529.231C162.552 525.092 163.111 517.153 160.478 506.825C151.373 489.123 147.419 469.892 148.657 449.521C126.04 473.113 99.4933 482.89 65.9215 480.162C57.2794 479.459 49.3229 477.415 42.2767 474.089C23.41 465.169 9.88412 447.819 5.1636 426.466C0.525665 405.47 5.10023 384.135 17.4028 369.392C27.8213 356.898 44.2048 351.655 59.1365 356.028C69.8297 359.153 78.1492 366.304 83.2192 376.694C84.2044 378.7 84.7767 380.592 84.9649 382.469C85.5948 388.623 82.4683 394.104 77.0123 396.433C72.2111 398.467 66.5649 397.033 62.9448 392.873C58.7543 388.063 55.1304 388.212 52.6703 388.895C42.3209 395.342 40.095 411.02 47.7558 424.087C47.7827 424.135 47.8115 424.185 47.8365 424.233L47.9248 424.382C49.4285 426.885 51.5739 428.942 54.1396 430.341C56.7052 431.74 59.5983 432.43 62.5204 432.34C63.519 432.313 64.5273 432.275 65.5394 432.227C72.9155 431.905 80.0251 429.38 85.9482 424.98C96.0671 417.446 104.024 408.342 109.626 397.894C102.434 390.281 96.4781 382.365 91.9036 374.359C88.3123 368.075 86.774 361.131 87.4577 354.258C88.343 345.352 92.5988 338.584 98.6463 330.567C80.978 313.194 69.8163 286.389 64.6252 248.81C24.57 242.675 9.32526 222.828 3.6061 207.088C-6.49557 179.29 4.96964 142.637 33.5232 111.425C35.509 109.245 37.5696 106.835 39.8185 104.061C46.423 95.8962 53.2733 87.8865 59.897 80.1395C80.2041 56.4 99.3781 33.9737 113.739 5.6696C114.414 4.33301 115.373 3.15924 116.548 2.22991C117.724 1.30057 119.088 0.637993 120.546 0.288235C122.004 -0.0615228 123.521 -0.0900627 124.991 0.204602C126.461 0.499266 127.849 1.11006 129.059 1.99451C151.913 18.7462 187.04 33.713 224.226 49.5598C256.49 63.3092 289.858 77.5265 318.993 94.3893C357.908 117.343 368.511 140.672 370.554 156.199C372.4 170.224 368.175 184.041 358.926 194.514L371.046 214.392C371.088 214.461 371.127 214.53 371.163 214.601C384.633 240.708 384.637 278.776 371.374 308.156C396.329 328.914 403.11 360.595 388.503 388.356C399.834 402.642 409.98 408.725 420.358 407.424C428.424 405.344 430.838 400.457 431.433 396.707C432.18 391.989 430.398 387.166 428.03 384.781C426.651 385.425 425.073 386.556 423.335 388.143C421.389 389.913 418.849 390.89 416.217 390.881C414.082 390.881 411.994 390.25 410.218 389.067C408.56 387.979 407.24 386.45 406.408 384.652C405.575 382.854 405.264 380.859 405.509 378.893C407.11 366.451 413.959 357.675 424.289 354.814C437.283 351.216 452.831 357.412 462.987 370.234C468.387 377.057 471.775 385.586 472.781 394.897C475.577 420.512 464.815 442.161 443.987 452.809C432.142 458.852 417.512 461.041 401.652 459.147L249.762 465.74C249.035 468.346 248.311 470.959 247.59 473.579C238.864 505.202 230.621 535.07 212.415 545.896C211.828 546.241 211.151 546.402 210.472 546.36L198.042 545.534C191.705 554.686 180.95 560 168.709 560C168.238 559.99 167.76 559.983 167.282 559.969ZM196.517 538.69L209.84 539.575C225.163 529.578 233.269 500.204 241.113 471.781C242.054 468.366 242.997 464.952 243.951 461.568C244.143 460.888 244.544 460.286 245.099 459.848C245.653 459.409 246.332 459.156 247.039 459.126L401.637 452.416C401.822 452.409 402.008 452.416 402.192 452.437C416.82 454.226 430.214 452.284 440.928 446.818C459.172 437.489 468.583 418.347 466.102 395.605C465.228 387.553 462.328 380.208 457.713 374.378C449.347 363.815 436.346 358.42 426.085 361.262C418.374 363.397 413.433 369.956 412.177 379.723C412.099 380.449 412.223 381.183 412.535 381.843C412.847 382.503 413.335 383.065 413.945 383.467C415.445 384.461 417.546 384.326 418.796 383.184C421.132 381.05 423.275 379.557 425.345 378.619C426.16 378.247 427.007 377.953 427.876 377.739C428.312 377.635 428.764 377.618 429.206 377.689C429.648 377.761 430.072 377.919 430.452 378.155C436.021 381.627 439.286 390.041 438.072 397.744C436.797 405.796 430.869 411.708 421.804 413.97C421.682 414.001 421.558 414.024 421.433 414.041C407.963 415.826 395.378 408.42 381.827 390.705C381.428 390.182 381.191 389.554 381.146 388.898C381.102 388.242 381.251 387.588 381.576 387.016C396.29 361.055 389.692 330.81 365.152 311.756C364.545 311.285 364.118 310.62 363.943 309.872C363.768 309.124 363.856 308.339 364.192 307.648C377.483 280.233 377.921 242.451 365.244 217.77L351.862 195.835C351.473 195.198 351.308 194.449 351.393 193.708C351.478 192.966 351.809 192.274 352.333 191.742C356.608 187.392 366.289 175.31 363.89 157.073C362.043 143.022 352.16 121.746 315.598 100.179C286.843 83.5366 253.669 69.3999 221.587 55.7309C184.034 39.7289 148.563 24.6125 125.082 7.40458C124.663 7.09352 124.181 6.8789 123.67 6.77613C123.158 6.67337 122.63 6.68503 122.124 6.81028C121.612 6.93228 121.134 7.16452 120.721 7.49072C120.309 7.81692 119.973 8.22918 119.737 8.69863C105.018 37.7197 84.6807 61.5014 65.0035 84.5009C58.4087 92.2115 51.5891 100.187 45.0403 108.273C42.7069 111.149 40.5636 113.658 38.4838 115.941C12.0274 144.861 0.813737 179.737 9.91869 204.793C17.3932 225.347 37.5005 238.393 68.0744 242.528C68.8067 242.627 69.4858 242.964 70.0066 243.487C70.5274 244.011 70.8608 244.691 70.9551 245.423C75.9829 284.269 87.256 311.191 105.416 327.726C106.038 328.293 106.425 329.072 106.499 329.91C106.573 330.748 106.329 331.583 105.815 332.25C99.2859 340.729 94.9456 346.891 94.1467 354.922C93.6032 360.393 94.8477 365.966 97.7457 371.035C102.389 379.171 108.573 387.221 116.121 394.962C116.607 395.46 116.926 396.097 117.033 396.784C117.141 397.471 117.032 398.174 116.722 398.797C110.609 411.066 101.608 421.693 89.9716 430.358C82.974 435.559 74.5741 438.545 65.8581 438.929C64.8006 438.979 63.7514 439.019 62.7105 439.048C58.5929 439.167 54.5177 438.19 50.9039 436.216C47.29 434.242 44.2679 431.344 42.148 427.818L41.956 427.478C41.9272 427.427 41.8984 427.377 41.8715 427.325C32.3709 410.97 35.8105 391.073 49.5822 382.917C49.8082 382.781 50.0501 382.674 50.3023 382.597C54.827 381.196 61.5736 381.075 68.0187 388.471C69.7241 390.43 72.2821 391.155 74.3774 390.26C77.1544 389.075 78.6139 386.426 78.2778 383.145C78.1703 382.07 77.8131 380.927 77.1793 379.637C72.9543 370.985 66.0732 365.046 57.2468 362.468C44.8828 358.846 31.2724 363.25 22.5688 373.684C11.5857 386.847 7.53346 406.038 11.7278 425.021C15.9951 444.324 28.1785 459.998 45.1593 468.021C51.47 471 58.641 472.833 66.4766 473.472C101.199 476.284 127.889 464.804 150.488 437.35C150.953 436.782 151.592 436.383 152.307 436.213C153.022 436.043 153.772 436.11 154.445 436.406C155.117 436.702 155.673 437.21 156.029 437.851C156.385 438.493 156.521 439.233 156.416 439.959C153.017 463.286 156.36 484.257 166.639 504.072C166.752 504.295 166.842 504.529 166.906 504.77C170.276 517.678 169.251 527.67 163.935 533.667C161.037 536.937 155.389 540.545 144.943 539.153C144.751 539.121 144.555 539.144 144.376 539.22C144.197 539.296 144.043 539.421 143.933 539.581C143.827 539.722 143.764 539.89 143.753 540.066C143.741 540.242 143.781 540.417 143.868 540.57C147.639 547.92 156.927 552.901 167.514 553.256C178.653 553.624 188.325 548.791 193.42 540.315C193.718 539.818 194.14 539.407 194.645 539.121C195.15 538.835 195.72 538.685 196.3 538.686C196.362 538.69 196.442 538.69 196.517 538.69Z" fill="#390075"/>
<path d="M72.5688 256.269C69.1388 227.077 68.2208 197.393 72.6341 168.262C74.5429 155.003 77.7699 141.966 82.2672 129.345C82.7895 127.854 80.5695 126.878 79.8781 128.419C71.428 148.526 67.057 170.149 65.1346 191.81C63.2372 213.512 63.775 235.369 65.8913 257.028C65.9392 257.468 66.0738 257.894 66.2872 258.281C66.5006 258.669 66.7888 259.011 67.135 259.287C67.4812 259.563 67.8787 259.768 68.3046 259.89C68.7305 260.012 69.1763 260.049 69.6165 259.998C70.0567 259.948 70.4826 259.811 70.8696 259.595C71.2565 259.38 71.597 259.09 71.8714 258.743C72.1458 258.395 72.3487 257.997 72.4683 257.571C72.588 257.146 72.6222 256.7 72.5688 256.261V256.269Z" fill="#390075"/>
<path d="M365.775 205.744C329.021 145.577 264.865 98.2362 203.923 64.3419C182.835 52.7741 160.905 42.6249 138.04 35.1329C137.832 35.0641 137.605 35.077 137.407 35.1691C137.208 35.2611 137.052 35.4254 136.97 35.6283C136.889 35.8312 136.888 36.0576 136.968 36.2612C137.048 36.4648 137.202 36.6303 137.4 36.7241C159.023 47.0208 180.298 57.7547 201.042 69.4912C224.377 82.6708 246.78 97.4306 268.094 113.667C274.399 118.502 282.901 125.264 288.979 130.376C316.006 153.299 341.216 179.046 360.013 209.194C362.318 212.837 367.947 209.679 365.775 205.744Z" fill="#390075"/>
<path d="M155.189 459.813C154.456 447.059 156.052 433.76 163.179 422.896C165.556 419.271 168.455 416.015 171.782 413.234C172.487 412.658 171.661 411.508 170.887 412.035C162.94 416.794 156.812 424.268 153.346 432.834C149.747 441.411 148.427 450.782 148.468 459.996C148.616 464.543 155.28 464.39 155.189 459.813Z" fill="#390075"/>
<path d="M106.734 394.737C111.625 398.669 117.089 401.913 122.866 403.94C123.096 404.019 123.348 404.012 123.573 403.921C123.799 403.83 123.984 403.66 124.094 403.443C124.204 403.226 124.232 402.976 124.172 402.741C124.112 402.505 123.969 402.299 123.769 402.16C121.481 400.372 119.312 398.437 117.275 396.367C115.466 394.504 113.125 391.82 111.383 389.864C108.023 386.39 103.093 391.542 106.734 394.734V394.737Z" fill="#390075"/>
<path d="M101.756 337.669C103.575 335.246 105.386 332.895 107.326 330.79C109.187 328.715 111.307 326.886 113.632 325.346C113.816 325.227 113.974 325.073 114.098 324.893C114.222 324.713 114.309 324.511 114.355 324.297C114.4 324.083 114.403 323.863 114.363 323.648C114.323 323.433 114.241 323.228 114.122 323.045C113.607 322.244 112.586 322.104 111.798 322.535C108.918 323.73 106.164 325.428 103.613 327.386C101.063 329.343 98.6834 331.511 96.3769 333.653C95.7191 334.264 95.3314 335.11 95.299 336.007C95.2665 336.903 95.5921 337.775 96.2041 338.432C97.825 340.19 100.606 339.682 101.76 337.665L101.756 337.669Z" fill="#390075"/>
<path d="M327.976 297.105C329.228 287.136 335.62 278.371 344.936 274.564C361.095 267.957 378.736 278.206 384.497 297.613C386.863 305.715 387.088 314.173 385.125 321.769C378.573 347.155 343.557 350.333 331.907 326.841C327.398 317.743 326.641 307.732 327.976 297.105Z" fill="white"/>
<path d="M385.214 379.493C384.073 382.065 382.706 384.532 381.129 386.864C379.617 389.085 377.785 391.071 375.69 392.757C375.518 392.893 375.375 393.061 375.269 393.252C375.162 393.442 375.094 393.652 375.069 393.869C375.044 394.087 375.062 394.306 375.122 394.517C375.182 394.727 375.283 394.923 375.419 395.094C376.007 395.844 377.034 395.888 377.78 395.385C380.549 393.889 383.074 391.982 385.269 389.728C387.528 387.458 389.514 384.897 391.327 382.276C391.837 381.538 392.032 380.628 391.87 379.745C391.708 378.863 391.202 378.081 390.462 377.572C388.509 376.211 385.909 377.29 385.21 379.489L385.214 379.493Z" fill="#390075"/>
<path d="M331.769 425.61L327.847 523.553L359.641 532.623C385.12 550.427 412.569 524.516 403.307 512.733C401.803 510.816 398.959 510.523 396.929 511.94C389.669 517.014 381.498 510.789 381.897 499.095C382.089 493.629 384.296 488.415 387.804 484.059C412.636 453.217 393.161 393.612 358.241 402.507L331.769 425.61Z" fill="#FF5831"/>
<path d="M358.517 403.594C377.227 400.719 389.925 417.242 393.902 433.806C398.112 450.544 395.655 469.656 384.254 483.049C377.976 491.292 375.635 504.273 382.717 512.94C386.691 517.764 393.796 518.615 398.957 514.821C399.479 514.474 400.276 514.466 400.612 515.03L400.764 515.237C401.501 516.355 401.759 517.706 401.507 519.311C400.906 522.819 398.313 526.191 395.538 528.601C389.45 533.917 380.804 536.36 372.838 534.736C368.824 533.969 364.974 532.244 361.507 529.855C361.219 529.664 360.903 529.518 360.57 529.422L328.777 520.352L331.193 523.684L335.114 425.741C335.195 421.404 328.763 421.04 328.45 425.476L324.529 523.419C324.499 524.165 324.721 524.898 325.159 525.502C325.598 526.107 326.226 526.546 326.945 526.751L358.738 535.823L357.745 535.349C370.42 544.755 388.143 544.346 400.176 533.938C405.273 529.554 409.707 522.963 408.482 515.783C407.478 509.9 402.028 505.665 396.209 508.307C395.589 508.618 394.993 508.973 394.424 509.369C387.829 512.96 384.678 503.734 385.471 498.018C385.855 493.641 387.939 489.345 390.774 485.823C407.724 464.181 405.598 426.32 385.554 407.293C381.905 403.961 377.361 401.42 372.464 400.324C367.631 399.27 362.595 399.649 357.976 401.415C356.743 401.923 357.236 403.74 358.531 403.583L358.517 403.594Z" fill="#390075"/>
<path d="M300.961 436.603L297.12 538.21L328.258 547.619C353.213 566.088 380.098 539.208 371.025 526.983C369.552 524.999 366.766 524.682 364.778 526.162C357.672 531.425 349.666 524.974 350.058 512.841C350.24 507.17 352.406 501.762 355.842 497.241C380.163 465.245 361.087 403.412 326.887 412.639L300.961 436.603Z" fill="#FF5831"/>
<path d="M327.181 413.728C356.13 409.865 366.95 449.177 362.746 471.776C361.661 478.262 359.645 484.569 356.347 490.23C356.057 490.715 355.377 491.85 355.103 492.314C354.817 492.713 353.998 493.865 353.701 494.285C349.378 499.774 346.374 506.758 346.557 513.941C346.455 520.979 349.752 529.554 357.469 531.316C359.573 531.729 361.753 531.529 363.747 530.741L364.861 530.256C365.821 529.972 367.282 528.118 368.147 529.094C370.067 531.728 369.17 535.42 367.52 538.282C364.559 543.505 359.249 547.419 353.528 549.252C345.614 551.921 336.876 549.812 330.269 544.933C329.954 544.703 329.604 544.527 329.232 544.41L298.094 535L300.477 538.338L304.318 436.732C304.334 436.291 304.264 435.851 304.11 435.438C303.957 435.025 303.723 434.645 303.423 434.322C303.123 433.999 302.762 433.738 302.36 433.554C301.959 433.37 301.525 433.267 301.084 433.25C300.642 433.233 300.202 433.304 299.788 433.457C299.374 433.61 298.994 433.843 298.67 434.143C298.346 434.443 298.085 434.804 297.9 435.204C297.716 435.605 297.613 436.038 297.596 436.478L293.755 538.085C293.728 538.826 293.947 539.555 294.378 540.159C294.81 540.763 295.429 541.207 296.14 541.423L327.279 550.832L326.252 550.316C330.354 553.336 335.086 555.763 340.146 556.746C350.411 558.933 361.473 555.358 368.907 548.044C372.779 544.189 375.846 539.473 376.353 533.735C377.052 525.904 370.44 518.155 362.631 523.329C357.982 526.879 354.306 521.251 353.797 516.811C352.837 510.793 354.68 504.733 358.279 499.749C359.03 498.675 360.136 497.084 360.872 496.003C362.6 493.127 364.244 490.06 365.433 486.904C372.441 468.736 371.206 447.734 362.723 430.298C358.381 421.563 351.145 413.092 341.287 410.626C336.41 409.375 331.261 409.697 326.578 411.545C325.339 412.07 325.867 413.906 327.168 413.722L327.181 413.728Z" fill="#390075"/>
<path d="M162.27 359.919C148.587 356.9 137.21 349.409 130.817 337.366C122.991 322.62 124.69 304.419 135.063 291.331C138.995 286.395 143.772 282.195 149.173 278.923C181.788 259.07 222.316 287.993 215.045 325.43C214.96 325.866 214.872 326.299 214.78 326.728C209.677 350.358 185.915 365.135 162.27 359.919Z" fill="white"/>
<path d="M192.214 358.684C176.274 360.304 158.769 358.788 145.535 349.024C132.806 339.904 127.085 322.842 131.266 307.856C136.421 288.702 155.862 275.804 175.143 274.387C187.3 273.45 199.216 277.334 208.813 285.162C209.074 285.375 209.407 285.482 209.744 285.461C210.081 285.441 210.398 285.295 210.632 285.052C210.866 284.809 211 284.487 211.007 284.15C211.014 283.813 210.893 283.485 210.67 283.233C204.748 276.502 196.963 271.671 188.296 269.347C150.951 259.52 110.648 294.544 124.792 333.139C132.388 353.529 152.43 363.876 173.33 363.826C179.872 363.783 186.38 362.885 192.688 361.154C194.188 360.728 193.76 358.514 192.21 358.684H192.214Z" fill="#390075"/>
<path d="M351.886 348.485C381.613 351.108 395.899 321.289 387.641 295.64C383.912 283.315 373.956 272.217 360.797 269.8C351.002 267.802 340.632 271.431 334.077 278.741C331.959 281.012 330.163 283.563 328.742 286.323C328.605 286.592 328.567 286.9 328.635 287.194C328.703 287.488 328.872 287.748 329.114 287.93C329.355 288.111 329.653 288.201 329.955 288.185C330.256 288.168 330.542 288.046 330.763 287.84C332.816 285.856 334.985 283.994 337.258 282.265C354.734 268.845 374.392 277.97 380.776 297.822C385.859 313.201 382.335 332.138 367.624 340.853C363 343.746 357.549 345.399 351.817 346.43C350.64 346.609 350.697 348.382 351.884 348.485H351.886Z" fill="#390075"/>
<path d="M183.975 546.329C184.196 546.607 184.427 546.865 184.667 547.124C185.816 548.345 187.028 549.507 188.296 550.604L188.344 550.652C217.651 576.044 256.099 546.952 259.671 510.412C259.805 511.284 259.949 512.156 260.093 513.009C260.349 514.415 260.608 515.805 260.871 517.179C270.925 567.292 302.507 594.41 327.06 550.134C327.88 548.662 328.53 547.103 329 545.485C329.153 544.939 329.288 544.383 329.384 543.827C329.603 542.712 329.712 541.579 329.71 540.443C329.732 538.587 329.403 536.743 328.74 535.008C327.895 532.976 326.541 531.452 324.707 530.656C323.623 530.206 322.453 530 321.279 530.052C320.248 530.086 319.225 530.25 318.235 530.541L311.514 532.458C311.571 531.749 311.667 531.02 311.792 530.292C311.792 530.292 311.792 530.292 311.792 530.273C313.655 519.154 322.316 505.619 325.917 491.241C326.981 486.31 327.687 481.309 328.03 476.278C328.417 470.513 328.241 464.725 327.502 458.995C322.912 424.707 297.648 406.543 276.945 422.225L259.661 427.018C230.201 394.762 175.362 441.367 208.644 512.933C209.517 514.758 210.237 516.653 210.795 518.598C215.26 534.807 206.186 537.673 196.286 529.583C191.1 526.707 186.28 527.704 183.476 531.001C182.435 532.232 181.698 533.69 181.325 535.257C180.355 539.139 181.459 543.242 183.975 546.329Z" fill="#FF5831"/>
<path d="M260.669 426.107C242.054 404.231 214.035 415.429 202.635 438.392C190.998 461.014 194.549 488.478 204.401 511.067C205.613 513.943 207.518 517.929 208.079 520.96C208.642 523.644 209.218 527.334 208.014 529.567C206.145 532.558 200.47 528.712 198.4 527.016C196.766 525.931 194.901 525.258 192.884 524.823C187.158 523.481 180.714 526.97 178.723 532.504C176.58 537.692 177.688 543.668 181.002 548.014C182.431 549.862 183.728 550.874 185.154 552.348L186.034 553.098C188.665 555.4 191.538 557.411 194.603 559.097C195.179 559.419 197.154 560.293 197.791 560.619C199.861 561.516 202.348 562.241 204.549 562.797C234.991 569.004 260.627 538.98 263.014 510.747C263.035 510.718 256.348 510.939 256.348 510.925C259.686 530.764 265.718 551.438 279.895 566.408C294.506 580.978 310.951 577.802 323.133 562.147C325.183 559.555 327.045 556.819 328.702 553.961C329.495 552.63 330.559 550.868 331.145 549.432C336.522 537.025 330.548 522.363 315.167 527.93L310.617 529.228C310.565 529.228 314.878 532.731 314.875 532.736C316.088 523.747 320.914 515.352 324.325 506.901C335.848 481.404 335.337 442.744 313.807 422.549C302.829 412.463 287.6 411.008 276.194 421.23C275.015 422.277 276.45 424.069 277.719 423.235C295.731 411.809 312.205 424.506 319.417 441.753C325.833 457.256 325.846 474.918 322.213 491.139C321.934 492.236 321.279 494.385 320.926 495.458C317.986 504.306 313.5 513.007 310.396 522.056C309.334 525.223 308.46 528.574 308.176 532.188C308.138 532.628 308.187 533.071 308.321 533.492C308.455 533.912 308.671 534.302 308.956 534.639C309.242 534.976 309.591 535.254 309.985 535.455C310.378 535.657 310.808 535.778 311.249 535.813C311.656 535.844 312.066 535.802 312.459 535.689C313.697 535.315 317.993 534.122 319.255 533.754L320.129 533.549L320.964 533.44C323.188 533.279 324.446 534.015 325.426 535.85C327.191 539.525 326.238 544.967 324.07 548.597L322.918 550.55C321.416 553.145 319.728 555.629 317.869 557.983C300.285 580.413 282.977 565.013 273.419 545.061C268.15 534.099 264.927 522.066 262.993 509.906C262.348 506.104 256.876 506.211 256.341 509.98C254.654 526.065 245.855 541.693 232.216 550.585C225.093 555.199 216.397 557.774 207.933 556.432L206.013 556.11C205.606 555.954 203.658 555.535 203.199 555.356C202.356 554.992 201.302 554.708 200.457 554.342C200.021 554.104 198.262 553.328 197.801 553.086C197.077 552.678 195.942 551.986 195.248 551.595C193.311 550.309 191.464 548.891 189.721 547.352C187.728 545.37 185.671 543.71 184.861 541.106C183.474 537.504 184.899 532.393 188.809 531.425C190.538 530.934 192.665 531.414 194.67 532.489L194.183 532.159C197.768 534.924 201.48 537.324 206.493 537.236C215.6 536.661 216.21 526.308 214.348 519.522C213.618 516.125 211.659 511.75 210.205 508.566C202.187 490.639 198.427 469.99 203.754 450.824C208.25 434.554 221.905 417.886 240.155 419C247.209 419.462 253.598 423.026 258.662 427.936C259.893 429.178 261.762 427.407 260.662 426.115L260.669 426.107Z" fill="#390075"/>
<path d="M266.143 525.02C260.677 505.924 260.591 485.213 264.161 465.707C265.463 459.158 267.291 452.67 270.256 446.727C270.386 446.468 270.41 446.169 270.325 445.892C270.239 445.615 270.049 445.382 269.795 445.241C269.542 445.101 269.243 445.063 268.963 445.136C268.682 445.209 268.44 445.388 268.288 445.635C264.674 451.614 262.242 458.188 260.458 464.865C256.919 478.285 255.605 492.197 256.304 506.06C256.711 513.051 257.723 520.055 259.694 526.901C261.05 531.137 267.295 529.345 266.143 525.012V525.02Z" fill="#390075"/>
<path d="M313.38 528.44C308.623 530.357 306.044 534.538 303.655 538.409C301.719 541.528 299.528 545.086 295.474 544.087C295.263 544.042 295.042 544.076 294.854 544.183C294.667 544.29 294.525 544.462 294.457 544.667C294.388 544.872 294.398 545.095 294.484 545.293C294.57 545.49 294.726 545.65 294.923 545.74C296.001 546.293 297.194 546.586 298.407 546.597C302.055 546.622 305.167 543.508 307.335 541.252C309.814 538.647 312.364 536.059 315.414 534.83C319.956 533.369 317.892 526.908 313.38 528.434V528.44Z" fill="#390075"/>
<path d="M349.779 335.724C360.768 335.544 369.494 324.327 369.27 310.671C369.045 297.014 359.955 286.089 348.966 286.269C337.977 286.449 329.251 297.666 329.475 311.323C329.7 324.979 338.79 335.904 349.779 335.724Z" fill="#390075"/>
<path d="M346.927 292.195C343.828 294.325 343.447 299.187 346.077 303.052C348.706 306.917 353.351 308.322 356.447 306.192C359.543 304.062 359.927 299.2 357.298 295.336C354.669 291.471 350.017 290.064 346.927 292.195Z" fill="white"/>
<path d="M342.318 323.5C340.957 324.947 341.358 327.461 343.209 329.111C345.061 330.762 347.669 330.927 349.03 329.479C350.392 328.032 349.99 325.518 348.139 323.868C346.288 322.217 343.682 322.056 342.318 323.5Z" fill="#B199C5"/>
<path d="M181.371 284.767C166.249 287.642 155.706 304.72 157.82 322.894C159.935 341.068 173.904 353.462 189.026 350.579C204.148 347.696 214.689 330.626 212.577 312.451C210.464 294.277 196.491 281.883 181.371 284.767Z" fill="#390075"/>
<path d="M182.078 292.429C177.736 295.353 177.121 301.909 180.707 307.072C184.292 312.235 190.72 314.048 195.062 311.123C199.404 308.197 200.019 301.643 196.433 296.48C192.848 291.317 186.42 289.504 182.078 292.429Z" fill="white"/>
<path d="M175.151 334.684C173.23 336.659 173.747 340.039 176.303 342.232C178.859 344.425 182.466 344.601 184.382 342.627C186.299 340.652 185.786 337.274 183.23 335.081C180.674 332.888 177.067 332.711 175.151 334.684Z" fill="#B199C5"/>
<g opacity="0.25">
<path d="M116.907 50.5444C83.4771 104.124 66.2063 167.603 67.8694 230.704C68.7298 263.182 75.3458 297.327 96.9223 321.65C98.9177 323.898 101.188 326.142 104.109 326.862C109.909 328.291 115.541 322.771 116.573 316.893C117.604 311.016 115.42 305.115 113.396 299.509C98.8447 259.392 89.7417 217.074 89.2961 174.407C88.8506 131.74 97.245 88.712 116.183 50.4562L116.907 50.5444Z" fill="#390075"/>
</g>
<g opacity="0.25">
<path d="M70.9173 171.87L70.2355 175.148C70.4947 174.056 70.7156 172.963 70.9173 171.87Z" fill="#390075"/>
</g>
<g opacity="0.25">
<path d="M66.2697 245.66C64.2145 226.475 64.647 207.106 67.5564 188.031L70.245 175.149C68.0077 185.117 63.9363 194.933 56.2256 201.537C47.6795 208.861 33.7561 210.787 25.306 203.349C20.8121 199.39 18.498 193.553 16.8752 187.801C12.8302 173.371 12.1632 158.206 14.9259 143.478C-8.45585 188.185 1.35775 236.247 66.2697 245.66Z" fill="#390075"/>
</g>
<g opacity="0.25">
<path d="M52.3271 435.932C65.1462 439.335 78.9928 436.45 90.9285 430.679C102.864 424.909 113.235 416.397 123.471 407.99C126.14 405.805 128.906 403.476 130.173 400.274C132.785 393.708 128.224 386.682 124.009 381.007C117.729 372.572 111.583 363.715 108.76 353.593C105.937 343.47 106.993 331.68 113.926 323.762L111.871 324.855L108.27 326.782L105.582 328.22C104.641 328.737 103.719 329.293 102.826 329.897C102.941 330.012 103.056 330.118 103.172 330.223C96.3155 339.128 91.7063 345.732 90.8229 354.609C90.1988 360.897 91.7063 367.223 94.8559 372.716C99.6763 381.16 105.972 389.362 113.744 397.322C107.877 409.102 99.3306 419.244 87.9902 427.689C81.5272 432.482 73.7756 435.236 65.732 435.597C61.4205 435.788 57.2531 435.836 53.2489 435.664C53.2093 435.637 53.1738 435.605 53.1433 435.568L52.3271 435.932Z" fill="#390075"/>
</g>
<g opacity="0.25">
<path d="M37.8851 467.909C39.7754 469.058 41.7241 470.107 43.7234 471.053C50.7715 474.38 58.4342 476.182 66.1929 476.814C94.1837 479.086 116.663 472.146 135.627 456.905C135.627 456.905 135.627 456.896 135.647 456.896C138.383 454.26 141.043 451.566 143.636 448.873C151.798 440.38 160.181 430.89 161.583 419.205L165.52 416.406C145.115 426.337 130.509 445.307 110.978 456.857C89.2001 469.769 63.1393 472.204 37.8851 467.909Z" fill="#390075"/>
</g>
<g opacity="0.25">
<path d="M259.997 511.284C260.026 511.859 260.064 512.434 260.093 513.009C260.362 517.438 260.74 521.866 261.226 526.295C261.245 526.151 261.255 526.007 261.265 525.864C261.476 522.959 261.245 520.064 260.881 517.179C270.934 567.292 302.516 594.41 327.07 550.134C327.889 548.662 328.54 547.103 329.009 545.485C329.098 545.734 329.2 545.977 329.317 546.214C329.48 545.763 329.662 545.313 329.854 544.872L329.403 543.827L328.443 541.593L325.38 534.5C327.146 546.319 316.257 558.339 304.302 557.764C296.092 557.371 288.775 551.955 284.137 545.178C279.5 538.401 277.137 530.378 275.063 522.451C269.859 502.59 265.979 482.067 266.652 461.641C266.786 457.519 267.116 453.4 267.641 449.285C266.594 452.16 265.672 455.055 264.856 457.979C264.501 459.235 264.174 460.5 263.857 461.765C263.061 465.024 262.386 468.309 261.831 471.619C259.642 484.607 259.287 497.912 259.997 511.284Z" fill="#390075"/>
</g>
<g opacity="0.25">
<path d="M311.802 530.273C311.802 530.282 311.802 530.282 311.802 530.292C311.803 530.523 311.82 530.753 311.85 530.982C314.905 530.057 318.112 529.741 321.289 530.052C322.028 530.129 322.758 530.244 323.488 530.369C323.901 530.445 324.314 530.541 324.717 530.656C325.735 530.953 326.705 531.394 327.434 532.152C328.174 532.934 328.636 533.938 328.75 535.008C329.038 537.021 328.51 539.379 328.433 541.593C328.407 542.047 328.411 542.501 328.443 542.954C328.507 543.82 328.695 544.672 329 545.485C329.088 545.734 329.191 545.977 329.307 546.214C331.381 550.556 336.758 553.297 341.8 553.901C351.632 555.09 361.945 550.671 367.851 542.744C370.203 539.571 371.913 535.344 370.328 531.72L369.973 527.819C369.272 536.59 359.833 543.002 351.047 542.159C342.26 541.315 334.828 534.634 331.083 526.669C327.338 518.703 326.753 509.606 327.146 500.807C327.54 492.007 328.856 483.246 328.664 474.447C328.452 475.06 328.241 475.664 328.039 476.278C323.68 488.969 319.327 501.66 314.98 514.351C313.223 519.518 311.427 524.857 311.802 530.273Z" fill="#390075"/>
</g>
<g opacity="0.25">
<path d="M401.645 515.887C400.161 519.294 397.228 521.912 393.963 523.705C385.016 528.626 371.962 526.657 367.05 517.718C364.396 512.89 364.444 507.062 365.03 501.587C366.391 488.838 370.276 475.931 367.421 463.437C365.918 474.092 362.537 484.398 357.434 493.877C354.511 499.298 350.937 504.737 350.712 510.891C350.601 513.958 351.35 517.008 352.291 519.938C353.161 522.645 354.277 525.411 356.42 527.284C358.563 529.157 362.007 529.832 364.265 528.099C365.679 527.012 366.624 525.074 368.396 524.867C370.682 524.596 372.055 527.462 371.959 529.757C371.863 532.052 371.079 534.487 372.072 536.561C373.923 540.433 379.735 539.496 383.503 537.433C392.373 532.545 399.425 524.927 403.606 515.714L401.645 515.887Z" fill="#390075"/>
</g>
<g opacity="0.25">
<path d="M399.932 443.821C399.923 447.818 399.452 451.892 399.702 455.86L401.786 455.774C417.687 457.72 431.505 455.4 442.461 449.812C461.733 439.958 472.142 419.972 469.453 395.251C469.041 391.378 468.154 387.569 466.813 383.911C467.13 397.264 464.719 410.837 457.287 421.813C448.626 434.619 431.899 442.757 417.168 438.003C405.847 434.351 397.973 424.334 390.81 414.844C396.746 423.346 399.929 433.458 399.932 443.821Z" fill="#390075"/>
</g>
<g opacity="0.25">
<path d="M306.098 342.73C309.05 342.538 311.579 344.864 313.148 347.366C317.663 354.568 317.122 364.269 312.862 371.625C311.193 374.5 308.433 377.343 305.113 377.039C302.272 376.776 300.162 374.29 298.844 371.763C293.886 362.267 296.277 349.524 304.343 342.466C304.855 342.017 305.925 341.787 305.975 342.466L306.098 342.73Z" fill="#390075"/>
</g>
<g opacity="0.25">
<path d="M332.174 362.333C331.552 366.596 330.907 370.939 328.998 374.794C325.216 382.441 316.357 387.199 307.873 386.296C299.388 385.393 291.779 378.975 289.319 370.81C288.935 369.537 288.654 368.203 287.93 367.087C287.206 365.971 285.891 365.107 284.589 365.381C283.373 365.638 282.547 366.782 282.092 367.938C281.063 370.58 281.399 373.609 282.476 376.23C283.554 378.85 285.342 381.122 287.218 383.25C292.766 389.55 300.106 395.201 308.51 395.245C316.04 395.284 323.067 390.608 327.242 384.351C331.418 378.093 333.061 370.459 333.465 362.952L332.174 362.333Z" fill="#390075"/>
</g>
<g opacity="0.25">
<path d="M332.739 378.06C331.303 381.626 329.464 385.016 327.256 388.164C323.342 393.748 318.103 398.631 311.675 400.93C305.247 403.228 297.542 402.578 292.29 398.227C289.513 395.926 287.575 392.782 285.899 389.6C283.796 385.599 281.979 381.068 282.976 376.663C284.729 381.412 288.693 384.947 292.513 388.277C295.664 391.026 298.987 393.863 303.058 394.837C306.663 395.7 310.482 394.985 313.96 393.7C322.131 390.644 328.85 384.629 332.781 376.853C332.915 376.582 333.048 376.253 332.894 375.99C332.741 375.727 332.201 375.837 332.289 376.126L332.739 378.06Z" fill="#390075"/>
</g>
<g opacity="0.25">
<path d="M387.689 336.561C386.497 340.476 383.407 343.631 379.787 345.55C376.166 347.469 372.045 348.261 367.956 348.564C363.758 348.876 359.458 348.683 355.473 347.314C361.876 348.081 367.737 343.953 372.758 339.924C376.894 336.605 381.117 333.003 383.128 328.097C385.164 330.953 386.85 334.042 388.148 337.299L387.689 336.561Z" fill="#390075"/>
</g>
<g opacity="0.4">
<path d="M166.747 65.0378C193.904 79.1783 221.4 93.5547 244.002 114.19C247.779 117.641 251.712 122.097 250.94 127.152C250.195 132.031 245.204 135.219 240.343 136.126C229.523 138.143 218.861 132.115 210.303 125.198C192.493 110.82 178.999 91.9232 165.748 73.2756C163.724 70.4293 161.7 67.5831 159.677 64.7368C162.917 63.4102 167.019 64.7368 168.878 67.6872" fill="white"/>
</g>
<g opacity="0.4">
<path d="M269.532 137.403C266.573 136.145 263.018 136.799 260.368 138.616C257.718 140.434 255.901 143.275 254.798 146.285C251.804 154.572 254.464 164.739 261.507 170.057C268.549 175.375 279.513 174.93 285.724 168.671C291.935 162.411 292.04 150.976 285.57 144.983C282.497 142.132 278.43 140.639 274.481 139.214L266.65 136.387" fill="white"/>
</g>
<g opacity="0.4">
<path d="M305.507 439.159C312.142 443.184 314.512 451.811 314.097 459.56C313.978 461.761 313.657 464.027 312.514 465.914C311.372 467.8 309.228 469.224 307.037 468.95C304.619 468.646 302.864 466.439 302.015 464.158C301.166 461.876 300.949 459.401 300.095 457.124C299.24 454.846 297.775 452.816 297.022 450.498C296.393 448.547 296.293 446.464 296.732 444.461C297.252 442.111 298.702 439.793 300.982 439.007C303.261 438.221 306.263 439.628 306.494 442.025" fill="white"/>
</g>
<g opacity="0.4">
<path d="M311.573 481.529C311.957 484.119 311.698 486.96 310.072 489.005C308.445 491.051 305.151 491.892 303.114 490.248C301.741 489.139 301.249 487.245 301.272 485.485C301.316 482.38 303 479.111 305.939 478.078C308.877 477.044 312.728 479.228 312.647 482.324" fill="white"/>
</g>
<g opacity="0.4">
<path d="M347.851 432.481C350.7 435.628 352.499 439.58 352.998 443.792C353.207 445.581 353.153 447.481 352.283 449.057C351.413 450.632 349.537 451.764 347.793 451.303C345.859 450.792 344.867 448.708 344.125 446.852L340.092 436.77C338.786 433.511 337.901 428.921 340.98 427.223C342.981 426.117 345.621 427.169 347.035 428.963C348.448 430.758 348.936 433.085 349.384 435.324" fill="white"/>
</g>
<g opacity="0.4">
<path d="M353.03 464.096C353.672 463.381 354.628 464.671 354.615 465.63C354.588 467.518 353.964 469.464 352.595 470.764C351.225 472.064 349.036 472.578 347.361 471.696C345.552 470.737 344.794 468.542 344.619 466.508C344.406 464.027 345.039 461.171 347.196 459.921C349.353 458.671 352.873 460.59 352.151 462.973" fill="white"/>
</g>
<g opacity="0.4">
<path d="M222.375 434.27C213.562 440.119 209.147 451.856 211.928 462.049C212.364 463.646 213.095 465.354 214.616 466.027C217.272 467.208 220.078 464.317 220.71 461.485C221.342 458.654 220.879 455.565 222.104 452.935C224.422 447.95 231.72 446.708 233.717 441.591C234.783 438.86 233.831 435.476 231.493 433.699C229.156 431.922 225.634 431.902 223.28 433.655" fill="white"/>
</g>
<g opacity="0.4">
<path d="M219.266 476.396C217.424 474.941 214.601 476.417 213.401 478.432C211.895 480.955 211.92 484.462 213.883 486.649C215.846 488.836 219.771 489.084 221.666 486.841C223.902 484.195 222.5 480.142 220.656 477.209" fill="white"/>
</g>
<g opacity="0.4">
<path d="M175.059 427.332C169.767 432.939 166.469 440.127 165.673 447.789C165.374 450.761 165.529 453.989 167.308 456.391C169.086 458.793 172.958 459.804 175.13 457.749C177.407 455.592 176.57 451.871 177.181 448.798C177.872 445.324 180.492 442.621 182.614 439.787C184.736 436.954 186.495 433.248 185.164 429.964C184.722 428.871 183.968 427.931 182.996 427.261C182.024 426.591 180.876 426.22 179.696 426.195C178.515 426.169 177.352 426.489 176.352 427.116C175.352 427.743 174.557 428.65 174.068 429.723" fill="white"/>
</g>
<g opacity="0.2">
<path d="M209.737 624C305.46 624 383.059 616.704 383.059 607.705C383.059 598.705 305.46 591.409 209.737 591.409C114.013 591.409 36.4141 598.705 36.4141 607.705C36.4141 616.704 114.013 624 209.737 624Z" fill="#390075"/>
</g>
<path d="M434.145 301.263C433.414 298.355 433.611 295.291 434.708 292.5C435.805 289.708 437.748 287.328 440.265 285.692C442.783 284.056 445.749 283.245 448.75 283.373C451.751 283.5 454.638 284.56 457.006 286.404C459.375 288.248 461.108 290.784 461.964 293.658C462.819 296.533 462.754 299.602 461.778 302.438C460.802 305.274 458.963 307.735 456.519 309.477C454.074 311.22 451.146 312.157 448.142 312.158C444.927 312.156 441.804 311.083 439.269 309.109C436.734 307.135 434.931 304.374 434.145 301.261V301.263ZM445.324 286.573C442.355 287.321 439.804 289.215 438.232 291.839C436.66 294.462 436.195 297.602 436.94 300.567C437.497 302.779 438.699 304.777 440.393 306.307C442.087 307.837 444.198 308.831 446.458 309.164C448.719 309.496 451.027 309.152 453.091 308.175C455.156 307.198 456.884 305.632 458.056 303.674C459.229 301.717 459.794 299.456 459.68 297.179C459.565 294.901 458.777 292.708 457.414 290.877C456.051 289.047 454.175 287.661 452.023 286.894C449.871 286.128 447.54 286.016 445.324 286.573Z" fill="#B7FFFF"/>
<g opacity="0.6">
<path d="M456.89 296.904C457.898 295.358 456.628 292.75 454.054 291.078C451.479 289.407 448.576 289.306 447.569 290.852C446.561 292.398 447.831 295.006 450.405 296.677C452.979 298.349 455.883 298.45 456.89 296.904Z" fill="white"/>
</g>
<g opacity="0.6">
<path d="M446.187 291.241C446.624 290.52 446.391 289.582 445.668 289.146C444.946 288.711 444.006 288.943 443.57 289.664C443.134 290.386 443.366 291.324 444.089 291.759C444.812 292.195 445.751 291.963 446.187 291.241Z" fill="white"/>
</g>
<path d="M408.809 284.692C405.768 282.86 403.495 279.99 402.412 276.614C401.328 273.237 401.507 269.584 402.915 266.329C404.323 263.074 406.865 260.439 410.07 258.911C413.275 257.384 416.926 257.067 420.346 258.02C423.767 258.974 426.726 261.132 428.675 264.096C430.623 267.06 431.43 270.629 430.946 274.141C430.461 277.653 428.718 280.871 426.039 283.199C423.36 285.526 419.927 286.806 416.375 286.801C413.708 286.796 411.092 286.067 408.809 284.692ZM413.498 260.496C410.436 261.265 407.806 263.217 406.185 265.922C404.565 268.627 404.087 271.864 404.856 274.92C405.401 277.078 406.541 279.04 408.147 280.583C409.753 282.126 411.761 283.187 413.942 283.647C416.123 284.107 418.389 283.947 420.483 283.184C422.577 282.422 424.415 281.088 425.787 279.334C427.159 277.581 428.01 275.478 428.244 273.265C428.478 271.052 428.085 268.818 427.11 266.817C426.134 264.817 424.616 263.129 422.728 261.947C420.839 260.765 418.656 260.136 416.427 260.132C415.44 260.132 414.456 260.255 413.498 260.496Z" fill="#B7FFFF"/>
<g opacity="0.6">
<path d="M415.488 264.946C416.496 263.399 419.398 263.5 421.972 265.172C424.545 266.844 425.812 269.451 424.808 270.996C423.804 272.541 420.898 272.442 418.325 270.77C415.751 269.098 414.47 266.491 415.488 264.946Z" fill="white"/>
</g>
<g opacity="0.6">
<path d="M411.317 264.936C411.39 265.231 411.548 265.498 411.774 265.703C411.999 265.908 412.279 266.041 412.581 266.086C412.882 266.131 413.19 266.086 413.465 265.956C413.74 265.827 413.971 265.618 414.127 265.357C414.283 265.096 414.359 264.795 414.343 264.491C414.327 264.188 414.222 263.896 414.04 263.652C413.858 263.409 413.607 263.224 413.32 263.123C413.033 263.022 412.722 263.009 412.427 263.084C412.035 263.185 411.698 263.435 411.49 263.782C411.282 264.129 411.22 264.544 411.317 264.936Z" fill="white"/>
</g>
<path d="M410.829 241.283C410.351 239.385 410.479 237.386 411.195 235.565C411.91 233.743 413.178 232.19 414.82 231.122C416.462 230.055 418.398 229.525 420.356 229.608C422.314 229.692 424.197 230.383 425.743 231.586C427.288 232.79 428.419 234.444 428.977 236.32C429.535 238.196 429.492 240.198 428.855 242.049C428.217 243.899 427.017 245.504 425.422 246.641C423.826 247.777 421.915 248.388 419.955 248.388C417.855 248.4 415.813 247.705 414.157 246.416C412.501 245.127 411.329 243.319 410.829 241.283ZM418.365 232.671C416.756 233.07 415.36 234.066 414.462 235.457C413.563 236.847 413.229 238.527 413.528 240.155C413.827 241.783 414.736 243.235 416.071 244.217C417.405 245.199 419.064 245.636 420.71 245.439C422.356 245.242 423.865 244.426 424.929 243.158C425.994 241.889 426.534 240.263 426.439 238.611C426.345 236.959 425.623 235.405 424.42 234.266C423.218 233.127 421.626 232.488 419.969 232.479C419.429 232.478 418.892 232.542 418.369 232.671H418.365Z" fill="#B7FFFF"/>
<g opacity="0.6">
<path d="M421.597 239.275C422.971 239.097 423.939 237.841 423.761 236.47C423.582 235.098 422.324 234.131 420.95 234.31C419.576 234.488 418.608 235.744 418.786 237.116C418.965 238.487 420.223 239.454 421.597 239.275Z" fill="white"/>
</g>
<path d="M441.015 257.653C440.155 257.143 439.405 256.467 438.808 255.666C438.212 254.864 437.78 253.952 437.539 252.983C437.171 251.524 437.245 249.99 437.751 248.573C438.258 247.157 439.173 245.922 440.383 245.025C441.592 244.128 443.04 243.609 444.545 243.534C446.05 243.459 447.543 243.831 448.836 244.603C450.129 245.375 451.163 246.513 451.808 247.872C452.453 249.231 452.68 250.751 452.46 252.238C452.24 253.726 451.583 255.115 450.572 256.23C449.561 257.345 448.241 258.136 446.78 258.502C446.169 258.656 445.542 258.734 444.912 258.734C443.538 258.733 442.191 258.36 441.015 257.653ZM443.771 246.545C442.553 246.851 441.507 247.627 440.862 248.703C440.218 249.778 440.027 251.066 440.333 252.281C440.55 253.138 441.003 253.917 441.641 254.53C442.279 255.142 443.076 255.564 443.942 255.747C444.808 255.93 445.709 255.866 446.54 255.564C447.372 255.261 448.102 254.732 448.648 254.036C449.194 253.34 449.533 252.506 449.627 251.627C449.721 250.748 449.566 249.861 449.18 249.065C448.794 248.27 448.192 247.599 447.443 247.128C446.694 246.657 445.828 246.405 444.942 246.401C444.547 246.401 444.154 246.449 443.771 246.545Z" fill="#B7FFFF"/>
<g opacity="0.6">
<path d="M444.257 250.291C444.335 250.602 444.504 250.882 444.742 251.097C444.98 251.312 445.276 251.452 445.594 251.498C445.911 251.545 446.235 251.497 446.525 251.36C446.815 251.222 447.058 251.002 447.223 250.728C447.388 250.453 447.467 250.135 447.451 249.815C447.435 249.495 447.325 249.187 447.133 248.93C446.942 248.673 446.679 248.478 446.377 248.37C446.075 248.262 445.747 248.246 445.436 248.324C445.229 248.376 445.034 248.468 444.863 248.595C444.692 248.722 444.547 248.881 444.438 249.064C444.328 249.247 444.256 249.449 444.225 249.66C444.194 249.87 444.205 250.085 444.257 250.291Z" fill="white"/>
</g>
<path d="M464.546 166.533C462.528 166.337 460.671 165.35 459.381 163.788C458.091 162.227 457.474 160.218 457.665 158.203C457.807 156.732 458.374 155.333 459.297 154.176C460.22 153.02 461.459 152.156 462.865 151.69C464.27 151.223 465.781 151.174 467.214 151.548C468.646 151.923 469.939 152.704 470.936 153.798C471.932 154.892 472.589 156.251 472.826 157.71C473.063 159.17 472.871 160.666 472.273 162.019C471.674 163.371 470.695 164.521 469.454 165.328C468.214 166.136 466.765 166.566 465.284 166.568C465.038 166.568 464.792 166.557 464.546 166.533ZM461.635 154.522C461.053 154.998 460.571 155.585 460.218 156.248C459.864 156.911 459.646 157.637 459.576 158.385C459.468 159.511 459.696 160.644 460.232 161.64C460.768 162.637 461.588 163.452 462.589 163.983C463.589 164.514 464.725 164.737 465.852 164.624C466.98 164.511 468.048 164.066 468.922 163.347C469.797 162.628 470.438 161.665 470.764 160.582C471.091 159.499 471.088 158.344 470.757 157.262C470.426 156.18 469.781 155.221 468.903 154.506C468.026 153.79 466.955 153.35 465.827 153.242C465.635 153.225 465.453 153.215 465.269 153.215C463.942 153.214 462.656 153.676 461.635 154.522Z" fill="#B7FFFF"/>
<g opacity="0.6">
<path d="M464.195 158.086C464.156 158.494 464.238 158.905 464.432 159.266C464.627 159.627 464.924 159.923 465.286 160.115C465.649 160.308 466.061 160.389 466.469 160.348C466.878 160.307 467.265 160.146 467.582 159.885C467.899 159.624 468.131 159.275 468.249 158.883C468.368 158.49 468.367 158.071 468.247 157.679C468.126 157.287 467.892 156.94 467.574 156.68C467.256 156.421 466.868 156.262 466.459 156.223C466.188 156.197 465.914 156.224 465.654 156.304C465.393 156.383 465.151 156.513 464.94 156.686C464.73 156.859 464.556 157.072 464.428 157.312C464.3 157.552 464.221 157.815 464.195 158.086Z" fill="white"/>
</g>
<path d="M461.362 199.553C459.546 199.376 457.875 198.487 456.714 197.082C455.553 195.676 454.998 193.869 455.171 192.055C455.299 190.732 455.809 189.474 456.64 188.434C457.47 187.395 458.585 186.618 459.849 186.199C461.113 185.779 462.472 185.735 463.761 186.071C465.05 186.408 466.213 187.111 467.109 188.094C468.006 189.078 468.597 190.3 468.811 191.612C469.025 192.925 468.853 194.271 468.316 195.488C467.779 196.704 466.899 197.739 465.784 198.467C464.669 199.194 463.367 199.583 462.034 199.586C461.812 199.582 461.579 199.571 461.362 199.553ZM458.866 188.89C458.361 189.303 457.944 189.812 457.638 190.387C457.332 190.962 457.143 191.591 457.082 192.24C456.957 193.547 457.358 194.85 458.195 195.863C459.032 196.876 460.237 197.517 461.547 197.644C462.195 197.707 462.85 197.642 463.473 197.452C464.097 197.262 464.677 196.952 465.18 196.539C465.683 196.125 466.1 195.617 466.406 195.043C466.713 194.469 466.903 193.84 466.966 193.192C467.029 192.545 466.964 191.891 466.774 191.269C466.584 190.647 466.273 190.068 465.859 189.565C465.445 189.063 464.936 188.647 464.361 188.341C463.785 188.035 463.156 187.845 462.507 187.782C462.346 187.767 462.182 187.759 462.023 187.759C460.871 187.755 459.754 188.154 458.866 188.886V188.89Z" fill="#B7FFFF"/>
<g opacity="0.6">
<path d="M461.067 190.52C461.046 190.746 461.093 190.973 461.202 191.172C461.31 191.371 461.475 191.534 461.676 191.64C461.877 191.746 462.105 191.79 462.331 191.767C462.557 191.744 462.772 191.655 462.947 191.511C463.122 191.367 463.251 191.174 463.317 190.957C463.383 190.739 463.383 190.508 463.317 190.29C463.252 190.073 463.123 189.88 462.948 189.736C462.772 189.591 462.558 189.502 462.332 189.479C462.18 189.463 462.027 189.478 461.881 189.522C461.735 189.566 461.599 189.638 461.481 189.735C461.364 189.832 461.266 189.951 461.195 190.086C461.124 190.221 461.08 190.368 461.067 190.52Z" fill="white"/>
</g>
<path d="M413.813 313.976C413.392 312.293 413.656 310.512 414.548 309.024C415.44 307.535 416.888 306.461 418.572 306.037C419.473 305.811 420.411 305.778 421.325 305.942C422.239 306.105 423.108 306.46 423.874 306.984C424.64 307.508 425.285 308.188 425.768 308.98C426.251 309.772 426.559 310.657 426.673 311.577C426.787 312.497 426.704 313.43 426.43 314.316C426.155 315.201 425.695 316.018 425.08 316.712C424.465 317.407 423.709 317.963 422.863 318.344C422.017 318.725 421.099 318.922 420.17 318.922C418.711 318.92 417.293 318.432 416.142 317.537C414.991 316.641 414.172 315.388 413.813 313.976ZM419.041 307.895C417.85 308.195 416.827 308.955 416.196 310.007C415.565 311.059 415.378 312.318 415.676 313.508C415.899 314.396 416.381 315.198 417.061 315.812C417.741 316.427 418.588 316.827 419.495 316.96C420.402 317.094 421.329 316.957 422.158 316.565C422.987 316.173 423.68 315.544 424.151 314.759C424.622 313.973 424.849 313.066 424.803 312.151C424.758 311.237 424.441 310.356 423.894 309.622C423.347 308.887 422.594 308.331 421.73 308.023C420.866 307.716 419.93 307.671 419.041 307.895Z" fill="#B7FFFF"/>
<g opacity="0.6">
<path d="M418.434 311.23C418.527 311.598 418.726 311.93 419.008 312.185C419.29 312.439 419.641 312.605 420.017 312.66C420.392 312.715 420.776 312.658 421.12 312.496C421.463 312.333 421.75 312.073 421.945 311.747C422.14 311.422 422.234 311.046 422.215 310.667C422.196 310.288 422.064 309.923 421.837 309.619C421.611 309.315 421.298 309.084 420.94 308.957C420.582 308.83 420.195 308.812 419.826 308.905C419.333 309.029 418.909 309.344 418.648 309.78C418.387 310.216 418.31 310.738 418.434 311.23Z" fill="white"/>
</g>
<path d="M386.954 259.317C386.665 258.172 386.742 256.965 387.173 255.865C387.605 254.765 388.37 253.827 389.361 253.182C390.352 252.537 391.521 252.217 392.703 252.267C393.885 252.317 395.022 252.734 395.955 253.461C396.889 254.187 397.571 255.186 397.908 256.318C398.245 257.451 398.219 258.66 397.835 259.777C397.45 260.894 396.725 261.863 395.762 262.549C394.799 263.235 393.645 263.604 392.462 263.604C391.197 263.602 389.969 263.18 388.971 262.403C387.974 261.627 387.264 260.541 386.954 259.317ZM391.78 255.226C391.061 255.407 390.443 255.866 390.062 256.501C389.681 257.137 389.568 257.897 389.748 258.615C389.883 259.151 390.174 259.635 390.584 260.006C390.994 260.377 391.506 260.617 392.053 260.698C392.601 260.779 393.16 260.696 393.66 260.459C394.16 260.223 394.579 259.843 394.863 259.369C395.147 258.895 395.284 258.348 395.257 257.796C395.229 257.244 395.038 256.713 394.708 256.269C394.378 255.826 393.924 255.49 393.403 255.304C392.881 255.119 392.317 255.091 391.78 255.226Z" fill="#B7FFFF"/>
<g opacity="0.6">
<path d="M390.998 257.088C391.074 257.39 391.239 257.664 391.471 257.874C391.702 258.084 391.991 258.22 392.301 258.266C392.61 258.312 392.926 258.265 393.209 258.131C393.492 257.998 393.729 257.784 393.89 257.516C394.051 257.248 394.129 256.939 394.114 256.627C394.099 256.315 393.991 256.014 393.805 255.763C393.619 255.512 393.362 255.322 393.068 255.216C392.773 255.111 392.454 255.095 392.151 255.17C391.743 255.272 391.393 255.531 391.177 255.891C390.961 256.25 390.897 256.681 390.998 257.088Z" fill="white"/>
</g>
</g>
<defs>
<clipPath id="clip0_10_748">
<rect width="473.219" height="624" fill="white"/>
</clipPath>
</defs>
</svg>
