<svg width="731" height="417" viewBox="0 0 731 417" fill="none" xmlns="http://www.w3.org/2000/svg">
<g clip-path="url(#clip0_8_37)">
<path d="M681.8 271.301C676.003 270.277 670.595 271.443 666.464 276.02C662.774 280.112 663.138 284.89 664.566 290.159C665.404 289.525 666.016 289.103 666.585 288.628C669.422 286.23 673.079 285.032 676.783 285.286C681.732 285.555 685.411 289.166 685.368 293.801C685.332 297.291 684.436 300.664 682.038 303.304C673.515 312.68 662.537 314.792 650.811 312.532C639.616 310.384 631.178 303.452 624.606 294.313C617.555 284.51 615.299 273.106 614.224 261.386C614.231 260.367 614.59 259.382 615.241 258.599C622.973 248.721 628.744 237.793 631.953 225.687C633.171 221.099 633.244 216.158 633.403 211.359C633.455 209.833 632.444 207.922 631.321 206.776C627.864 203.25 621.966 203.82 618.572 207.896C615.426 211.78 613.178 216.315 611.989 221.173C609.491 230.676 608.695 240.406 609.033 250.173C609.175 254.185 607.525 257.036 605.206 259.834C604.642 260.499 603.362 261.349 602.882 261.122C602.081 260.747 601.57 259.607 601.127 258.699C600.925 258.112 600.876 257.483 600.985 256.872C601.617 250.152 601.875 243.362 603.03 236.732C604.542 228.015 606.756 219.421 608.695 210.778C608.996 209.453 608.895 208.598 607.436 207.89C603.161 205.821 598.771 205.805 594.376 207.051C593.74 207.277 593.16 207.636 592.672 208.102C592.184 208.569 591.8 209.134 591.545 209.759C590.728 212.33 590.418 215.076 589.964 217.758C588.025 229.277 585.347 240.601 580.314 251.202C578.733 254.576 576.409 257.617 574.422 260.805L573.584 260.652C573.273 259.195 572.725 257.749 572.646 256.276C571.787 239.725 576.156 224.177 582.001 208.862C577.879 206.317 573.605 205.853 569.046 206.549C566.332 206.967 564.414 208.255 563.744 210.9C562.074 217.515 560.413 224.135 559.001 230.813C558.195 234.683 557.098 235.855 553.156 235.808C553.156 231.442 553.298 227.065 553.082 222.71C553.167 219.885 551.538 215.741 550.494 213.386C549.931 212.111 549.145 210.945 548.176 209.944C547.095 208.83 545.625 207.479 544.486 207.046C537.182 204.084 526.304 206.597 523.326 216.749C523.02 217.805 521.745 218.571 520.817 219.389C519.384 220.693 517.233 221.654 516.548 223.259C514.733 227.325 513.351 231.572 512.427 235.929C511.188 242.307 509.602 248.394 504.553 252.87C504.287 253.102 504.003 253.312 503.704 253.499C501.68 254.766 498.935 253.298 499.087 250.907C499.094 250.802 499.107 250.698 499.124 250.595C500.584 242.407 502.244 234.255 503.999 226.125C504.795 222.43 506.245 218.919 506.898 215.234C507.778 210.277 504.642 206.898 499.604 206.787C494.038 206.681 490.307 209.992 487.103 213.877C478.87 223.871 473.885 235.591 469.71 247.702C468.888 250.078 468.098 252.453 467.297 254.834L466.285 254.623C466.197 252.977 466.209 251.327 466.322 249.682C466.806 245.68 467.191 241.636 468.093 237.719C470.828 225.856 473.516 213.962 476.746 202.247C479.25 193.156 482.544 184.297 485.474 175.322C486.565 171.954 485.674 170.18 482.149 170.328C477.457 170.567 472.797 171.242 468.229 172.345C458.927 174.52 449.535 175.845 440.044 174.831C433.998 174.182 428.048 172.598 422.098 171.246C421.615 171.121 421.181 170.852 420.852 170.476C420.524 170.099 420.317 169.631 420.259 169.135C420.174 167.551 420.754 165.967 421.075 164.383C423.02 154.844 424.839 145.277 426.947 135.774C429.16 125.775 431.516 115.797 434.088 105.878C435.353 101.015 435.105 100.165 430.13 99.1094C429.956 99.0725 429.777 99.083 429.603 99.0408C424.628 97.6787 419.589 98.1908 414.714 99.215C409.839 100.239 405.66 102.309 404.173 107.81C402.819 112.878 401.433 117.973 399.515 122.845C395.135 133.98 390.613 145.066 385.759 155.994C383.756 160.498 380.836 164.61 378.138 168.77C377.611 169.599 375.935 170.476 375.202 170.206C374.349 169.89 373.516 168.374 373.431 167.319C373.205 164.441 373.031 161.474 373.431 158.639C375.629 143.857 379.303 129.429 383.772 115.19C385.111 110.935 386.275 106.627 387.619 102.377C388.041 101.036 387.82 100.208 386.534 99.6268C379.577 96.4592 372.462 94.8384 364.867 97.0927C361.805 98.0008 359.107 99.3681 357.984 102.599C356.661 106.395 355.28 110.185 354.295 114.071C352.034 122.893 350.005 131.778 347.849 140.632C347.744 141.064 347.375 141.687 347.017 141.772C344.06 142.506 341.077 143.134 337.698 143.884C338.268 141.402 338.753 139.803 338.979 138.166C339.854 131.303 341.54 124.397 341.293 117.577C340.597 98.043 320.923 94.4478 310.277 100.303C298.086 107.013 295.319 123.928 302.898 135.194C305.091 138.446 308.263 141.033 311.689 144.697C308.59 153.503 305.523 163.174 301.728 172.545C300.068 176.653 297.217 180.396 294.381 183.875C292.199 186.546 288.742 186.129 287.287 183.025C285.944 180.179 284.779 176.785 285.016 173.744C285.727 164.769 286.834 155.762 288.426 146.888C289.87 138.8 292.083 130.844 294.076 122.856C296.827 111.806 299.573 100.751 302.54 89.7597C304.801 81.3919 307.383 73.1086 309.845 64.7989C312.775 54.9002 316.006 45.1175 321.039 36.0265C326.836 25.5417 337.619 19.3754 348.445 20.7164C356.066 21.6666 362.443 25.2724 365.141 32.6054C369.273 43.8293 366.991 54.2508 358.706 63.0198C353.931 68.0668 347.48 70.0466 340.897 71.2925C334.989 72.4118 328.997 73.0822 323.042 73.9322C325.001 74.7713 327.056 75.3671 329.16 75.7061C344.444 78.2243 358.495 75.7061 370.875 66.2032C371.603 65.6383 372.266 64.9938 372.852 64.2815C374.174 62.6977 376.415 59.9208 378.233 57.6612C380.25 55.1417 381.879 52.3336 383.066 49.3304C383.593 47.9895 384.12 46.6432 384.52 45.2706C387.609 35.2398 386.022 25.737 380.162 17.1528C373.69 7.64997 364.625 2.11719 353.156 0.596734C340.481 -1.09266 328.259 0.454191 316.954 6.536C302.793 14.1594 294.882 27.0041 289.575 41.5962C285.838 51.8645 282.565 62.3071 279.371 72.7443C276.257 82.9599 273.252 93.2229 270.654 103.586C267.049 117.946 263.866 132.417 260.53 146.845C259.976 149.237 260.082 151.935 258.991 154.02C254.991 161.67 250.89 169.33 244.993 175.744C243.914 176.875 242.655 177.817 241.267 178.532C239.654 179.387 238.268 178.775 237.804 176.985C237.411 175.554 237.234 174.071 237.277 172.587C237.962 158.18 241.704 144.369 245.71 130.648C248.397 121.504 251.533 112.487 254.448 103.407C254.875 102.076 254.975 100.735 253.288 100.171C250.906 99.3734 248.545 98.2859 246.099 97.9585C240.323 97.1901 234.449 98.172 229.234 100.778C225.376 102.652 224.227 106.622 222.799 110.581C222.161 110.011 221.719 109.636 221.302 109.235C214.878 102.942 207.515 98.3175 198.334 97.9163C195.057 97.7964 191.809 98.5701 188.937 100.155C181.453 104.531 177.516 112.028 174.222 119.657C168.467 132.998 165.199 147.072 162.891 161.364C162.776 161.774 162.566 162.151 162.277 162.464C161.989 162.777 161.63 163.017 161.231 163.164C156.677 164.061 152.071 164.716 147.528 165.55C145.762 165.877 145.061 165.254 144.64 163.539C141.203 149.554 133.208 138.578 122.067 129.751C119.927 128.061 117.603 126.583 115.184 124.915C116.412 124.155 117.35 123.558 118.309 122.983C119.268 122.407 120.28 121.869 121.239 121.267C139.759 109.731 150.643 93.9937 148.809 71.1869C148.349 65.3187 146.408 59.6637 143.169 54.7523C136.602 44.7216 127.074 39.4052 115.484 37.1246C103.13 34.7013 90.8084 35.0868 78.5917 37.605C66.2472 40.185 54.6366 45.5031 44.6135 53.1685C24.3543 68.4786 11.4577 88.7249 4.98571 113.131C0.948611 128.346 -0.442888 143.915 0.115771 159.637C0.569022 172.424 3.19897 184.693 9.64463 195.901C11.5472 199.206 13.7556 202.331 16.9758 204.512C17.2857 204.722 17.5784 204.957 17.8507 205.214C23.2687 210.182 34.8317 209.2 34.8317 209.2C40.1324 208.76 45.2698 207.148 49.8733 204.48C58.5747 199.433 64.8781 192.052 69.6266 183.363L69.7955 182.898C69.7955 182.898 74.6178 174.266 76.3623 170.228C77.6963 167.278 78.8422 164.247 79.7932 161.152C82.8184 150.546 86.1439 139.987 88.4154 129.212C90.7976 117.893 92.2787 106.369 93.8124 94.8965C94.9877 86.1011 95.5727 77.2318 96.5688 68.41C96.8112 66.2982 95.8468 65.2793 94.2182 64.6458C86.0176 61.4412 78.0117 62.1223 70.4751 66.5042C68.7991 67.4756 66.9493 69.6242 66.7491 71.4034C65.8057 79.787 65.4843 88.2339 64.7886 96.6439C64.2616 102.947 63.5815 109.24 62.8436 115.523C62.0531 122.238 61.3047 128.969 60.2085 135.643C58.5536 145.673 56.6459 155.635 54.7538 165.608L53.3307 173.918C51.8076 177.085 50.5481 180.422 48.9353 183.558C47.544 186.271 46.2052 189.186 44.1498 191.35C39.1324 196.63 38.289 197.326 32.4178 194.027C30.8367 193.145 29.6087 191.429 28.5863 189.856C23.1104 181.409 21.3765 171.769 20.9075 162.039C19.8955 140.985 22.183 120.332 29.9515 100.498C35.4537 86.4443 43.2591 73.9322 54.3058 63.648C66.0007 52.762 79.6826 47.0075 95.9417 49.0981C104.638 50.2121 111.689 54.2297 116.248 61.8742C121.26 70.2789 122.525 79.5705 120.992 89.0628C119.1 100.783 113.344 110.312 102.503 115.75C99.5428 117.139 97.1921 119.565 95.8941 122.571C93.4433 127.792 93.5384 128.246 97.839 131.894C109.808 142.046 114.124 155.736 115.463 170.719C115.843 174.942 115.648 174.942 111.774 176.489C93.9548 183.563 77.6904 193.14 64.0982 206.824C55.4021 215.582 48.1764 225.339 45.4674 237.782C44.0128 244.471 44.0128 251.097 46.5637 257.485C49.9104 265.884 56.435 270.899 65.0678 272.531C79.6246 275.281 93.3012 272.045 105.945 264.612C120.702 255.943 130.658 242.966 137.414 227.503C144.914 210.351 148.44 192.422 146.579 173.606C146.5 172.825 147.201 171.426 147.839 171.215C152.377 169.71 156.988 168.443 161.874 166.991C161.931 167.985 161.931 168.981 161.874 169.974C161.083 175.95 160.941 181.869 162.928 187.692C166.291 197.548 176.209 201.524 185.121 197.685C191.599 194.898 195.762 189.328 199.304 183.51C202.993 177.418 206.192 170.998 209.581 164.758C208.886 174.715 206.651 185.094 213.934 194.359C216.201 197.791 223.005 198.699 223.005 198.699C226.093 198.752 229.387 198.699 232.233 197.691C237.003 195.975 240.571 192.253 243.464 188.225C248.25 181.568 252.598 174.594 257.015 167.931C257.079 168.255 257.123 168.583 257.146 168.913C257.378 173.379 257.236 177.888 257.895 182.307C258.949 189.434 262.606 194.903 269.748 197.326C278.502 200.293 287.229 199.438 295.794 196.566C307.225 192.696 315.747 184.978 322.636 175.327C328.243 167.472 332.333 158.814 335.501 149.707C335.812 148.814 336.555 147.621 337.345 147.426C340.27 146.687 343.285 146.302 346.621 145.721C346.358 147.753 346.152 149.564 345.883 151.359C344.634 159.706 343.248 168.042 344.782 176.51C345.615 181.061 347.359 185.226 351.322 187.792C358.769 192.623 366.369 191.978 373.294 185.427C380.873 178.263 386.006 169.351 390.65 160.128C392.046 157.346 393.411 154.553 395.066 151.211C395.18 151.633 395.258 152.064 395.298 152.499C393.19 165.043 391.372 177.661 388.789 190.115C386.275 202.21 383.071 214.168 379.94 226.125C377.969 233.659 375.619 241.092 373.374 248.547C369.712 260.872 365.024 272.869 359.36 284.409C358.364 286.426 357.731 286.379 356.197 285.122C345.483 276.284 334.167 268.344 321.914 261.761C303.109 251.662 283.208 246.414 261.795 248.13C250.1 249.059 238.942 252.047 228.776 258.218C213.94 267.193 204.337 280.054 200.284 296.958C198.313 305.189 198.403 313.514 199.889 321.819C201.834 332.652 207.652 341.437 214.946 349.271C217.717 352.208 220.821 354.809 224.196 357.022C234.236 363.857 245.969 367.776 258.095 368.346C265.531 368.684 273.01 368.652 280.447 368.346C292.9 367.818 304.885 364.856 316.285 359.978C330.814 353.736 343.833 344.436 354.458 332.71C359.555 327.146 364.272 321.233 369.268 315.357C369.628 315.573 369.97 315.819 370.29 316.091C376.088 321.592 381.885 327.119 387.682 332.615C407.562 351.431 427.21 370.51 449.515 386.554C460.008 394.104 471.018 400.777 482.807 406.088C482.807 406.088 496.51 412.893 507.61 414.376C511.336 414.936 515.041 415.649 518.772 416.124C524.518 416.838 530.309 417.117 536.096 416.958C555.217 417.423 570.464 412.698 582.154 406.457C584.167 405.444 586.152 404.361 588.109 403.211C601.622 395.255 611.915 384.347 618.15 370.23C628.364 350.169 626.53 327.916 616.211 310.431C609.122 297.433 598.376 288.226 584.325 283.148C569.204 277.678 553.557 277.203 538.157 282.646C537.672 282.82 537.192 282.994 536.718 283.174C531.396 284.915 526.406 287.546 521.961 290.956C512.906 297.602 506.582 306.899 503.947 319.57C502.418 326.961 502.424 334.215 506.013 341.152C508.147 345.286 512.622 348.759 517.355 347.703C515.751 343.273 514.903 338.605 514.846 333.893C516.77 316.407 523.505 305.215 532.38 299.107C532.686 298.901 532.987 298.695 533.292 298.5L533.598 298.31C536.552 296.505 539.764 295.159 543.121 294.319C572.056 287.265 610.376 318.16 595.672 358.843C579.561 403.416 539.437 407.154 507.009 399.779L496.289 396.722C493.683 395.978 491.134 395.047 488.663 393.935C485.701 392.615 482.67 391.417 479.787 389.933C463.339 381.454 448.587 370.457 434.926 358.093C420.554 345.085 406.672 331.528 392.584 318.197C387.282 313.182 382.006 308.14 377.221 303.584C382.586 291.6 388.067 280.017 392.958 268.212C396.289 260.151 399.045 251.846 401.602 243.473C404.706 233.347 407.399 223.1 410.113 212.853C412.221 204.886 414.224 196.883 415.884 188.821C417.017 183.352 416.701 183.484 422.172 184.012C433.651 185.126 445.124 185.707 456.276 181.705L467.096 177.809C465.094 184.74 463.028 191.419 461.257 198.171C459.149 206.132 457.262 214.146 455.433 222.176C454.59 225.872 453.852 229.272 449.293 230.375C446.515 231.046 444.023 232.788 441.129 234.171C439.021 228.306 437.493 222.556 438.183 216.522C438.232 215.584 438.646 214.703 439.335 214.067C440.025 213.43 440.935 213.089 441.872 213.117C444.202 213.064 444.935 214.738 445.145 216.506C445.34 218.148 444.987 219.859 444.861 221.786C447.675 220.445 448.118 217.948 448.418 215.45C448.766 212.557 447.891 210.076 445.404 208.387C440.66 205.182 433.561 205.668 428.77 209.67C423.083 214.421 421.771 220.899 422.63 227.788C423.31 232.475 424.393 237.094 425.866 241.594C426.494 243.653 426.093 244.809 424.891 246.44C422.383 249.856 419.663 253.335 418.208 257.226C417.081 260.225 417.191 263.994 417.766 267.257C418.467 271.206 423.753 273.286 428.886 272.256C436.855 270.672 441.451 265.52 443.575 257.912C445.361 251.487 444.212 245.205 442.552 238.949C442.368 238.257 442.447 237.006 442.874 236.716C446.157 234.509 449.556 232.492 453.499 230.027C452.893 233.812 452.239 236.79 451.976 239.804C451.449 246.007 450.922 252.221 450.774 258.44C450.695 262.41 453.978 266.565 457.32 266.951C460.273 267.259 463.253 267.212 466.195 266.813C468.303 266.555 469.732 265.272 470.411 262.854C473.394 252.057 477.424 241.579 482.444 231.568C484.025 228.401 486.086 225.45 487.925 222.398L488.705 222.747C487.445 226.933 486.133 231.104 484.931 235.306C482.996 241.799 482.039 248.544 482.09 255.32C482.143 258.303 482.386 261.259 484.726 263.075C486.56 264.907 487.677 265.145 489.722 265.963L492.679 266.528C494.343 266.846 496.065 266.544 497.522 265.678C499.529 264.579 501.369 263.2 502.988 261.581C505.897 258.414 508.121 254.655 510.688 251.081C511.705 255.669 513.054 260.167 516.617 263.588C522.382 269.136 533.94 268.93 540.86 261.856C546.795 255.801 550.184 248.473 551.965 240.285C552.102 239.662 552.366 238.78 552.824 238.574C554.463 237.83 556.218 237.323 558.226 236.621C558.226 240.775 558.052 244.54 558.268 248.314C558.579 253.62 559.697 258.746 563.054 263.097C566.411 267.447 574.759 270.013 579.202 263.551C580.783 261.259 582.248 258.889 583.687 256.508C584.599 254.998 585.363 253.398 586.444 251.371C587.071 257.68 588.678 262.986 593.822 266.095C599.166 269.3 604.416 267.283 609.665 264.274C609.913 265.483 610.139 266.386 610.281 267.294C610.624 269.458 610.84 271.649 611.262 273.798C613.47 284.99 617.365 295.443 624.548 304.492C630.082 311.45 636.923 316.634 645.482 319.116C655.753 322.18 666.761 321.638 676.683 317.579C686.697 313.53 694.175 306.942 696.368 295.602C698.634 283.95 694.012 273.46 681.8 271.301ZM114.572 200.246C113.554 209.408 111.21 218.373 107.615 226.859C103.483 236.388 98.2868 245.252 89.8437 251.646C84.3625 255.795 78.17 257.949 71.1393 256.783C64.4776 255.679 60.6672 249.74 60.2877 244.028C59.3918 230.629 65.0837 219.679 73.8272 210.166C83.5247 199.607 95.3619 192.031 108.295 186.076L115.147 182.935L116.006 183.542C115.521 189.096 115.247 194.697 114.572 200.246ZM220.185 119.525C217.982 126.441 215.937 133.43 213.276 140.167C209.397 149.986 205.133 159.653 200.832 169.298C199.613 171.908 198.046 174.339 196.173 176.526C196.107 176.607 196.037 176.685 195.962 176.758C195.558 177.132 195.072 177.406 194.542 177.556C194.012 177.707 193.455 177.73 192.915 177.624C192.375 177.518 191.867 177.286 191.433 176.946C190.999 176.607 190.652 176.17 190.418 175.671C190.281 175.385 190.149 175.09 190.028 174.794C189.77 174.187 189.928 173.406 189.865 171.986C190.692 166.426 191.314 160.107 192.626 153.941C194.629 144.528 196.811 135.125 199.525 125.902C200.859 121.378 203.273 117.08 205.739 113.005C207.911 109.409 211.352 108.971 214.73 111.489C216.638 113 218.352 114.741 219.832 116.674C220.354 117.313 220.454 118.675 220.185 119.525ZM313.745 126.662C313.613 130.115 313.075 133.526 312.69 136.994C307.109 132.285 305.913 126.361 306.893 119.947C306.953 119.635 307.089 119.343 307.288 119.097C307.597 118.706 307.991 118.39 308.439 118.172C308.887 117.955 309.378 117.842 309.876 117.842C310.374 117.842 310.866 117.955 311.314 118.172C311.762 118.39 312.155 118.706 312.464 119.097C312.67 119.344 312.829 119.627 312.933 119.931C313.589 122.111 313.864 124.389 313.745 126.662ZM315.937 337.361C298.819 349.166 279.941 354.055 259.223 351.689C249.625 350.591 240.413 347.603 233.324 341.326C221.239 330.625 215.584 316.766 218.114 300.316C220.992 281.617 232.402 270.071 249.699 264.158C259.186 260.916 269.147 260.821 279.129 261.882C299.683 264.073 317.075 273.671 333.54 285.349C339.548 289.609 345.267 294.276 351.164 298.79C341.619 314.011 330.515 327.309 315.937 337.361ZM426.899 264.459C426.372 265.261 424.96 266.116 424.185 265.937C423.41 265.757 422.504 264.395 422.346 263.44C421.408 257.696 424.217 253.171 428.043 248.695C428.333 250.674 428.686 252.649 428.902 254.634C429.281 258.113 428.886 261.508 426.899 264.459ZM538.104 253.599C536.649 255.473 534.942 257.009 532.38 256.582C529.65 256.128 528.76 253.694 528.433 251.556C527.521 245.648 527.537 239.709 529.202 234.06L543.865 239.181C542.631 244.08 541.472 249.265 538.109 253.599H538.104ZM544.049 236.13C539.469 235.391 535.769 233.786 532.633 230.702C531 229.119 530.857 227.64 531.78 225.803C532.702 223.966 533.656 222.108 534.731 219.996L530.72 218.153C531.574 215.989 533.181 214.933 535.369 214.648C538.199 214.278 540.818 214.527 542.394 217.393C545.651 223.327 545.056 229.557 544.054 236.13H544.049ZM620.269 212.726C620.996 223.285 617.634 232.925 613.881 242.449C614.45 232.181 614.524 221.817 620.274 212.726H620.269Z" fill="white"/>
<path d="M724.248 236.362C718.978 240.057 720.559 234.725 721.086 232.138C721.613 229.551 725.829 215.772 725.829 215.772C727.41 207.325 718.978 203.63 708.964 209.965C698.95 216.3 692.099 253.784 692.099 253.784C689.991 258.535 689.991 252.728 689.991 252.728C690.449 241.757 698.012 219.315 700.036 213.486C702.228 208.466 701.96 208.054 696.347 207.151C691.366 206.333 684.799 208.761 683.634 212.43C681.11 220.35 678.991 228.358 676.699 236.33C676.029 238.642 677.131 241.298 674.949 243.352C672.99 245.28 671.169 247.344 669.499 249.528C669.389 249.671 669.283 249.808 669.178 249.956C667.258 252.646 664.565 254.685 661.457 255.8L661.125 255.917C654.168 258.345 651.064 256.682 650.389 249.328C650.031 245.484 650.958 241.525 651.359 237.027C656.339 240.638 660.798 239.614 665.004 236.911C667.144 235.537 668.989 233.75 670.433 231.655C671.876 229.559 672.888 227.197 673.41 224.705C674.506 219.795 674.095 214.901 669.721 211.28C662.585 205.309 650.463 205.14 643.675 214.189C638.847 220.624 636.544 228.168 634.873 235.913C633.476 242.37 632.375 248.863 634.093 255.447C635.585 261.175 639.205 265.076 644.702 266.792C652.634 269.268 664.102 264.205 668.329 256.761C668.97 255.545 669.692 254.374 670.49 253.256C671.76 251.646 672.856 250.331 674.459 248.615C674.501 249.571 674.575 250.579 674.617 251.545C674.654 252.422 674.617 253.298 674.58 254.185C674.48 256.545 675.376 262.104 676.467 263.572C678.137 266.375 681.574 267.732 684.984 267.758V267.784C693.943 268.312 694.47 261.449 694.47 261.449L699.741 240.86C704.484 222.91 711.863 214.991 711.863 214.991C713.971 214.463 713.444 215.519 713.444 215.519C706.065 225.022 707.383 236.9 707.383 236.9C710.018 245.347 720.559 243.763 725.302 239.012C730.045 234.261 730.045 227.397 730.045 227.397C728.464 232.666 724.248 236.362 724.248 236.362ZM652.692 233.067C654.131 227.044 655.617 221.009 659.312 215.846C659.359 215.778 659.359 215.651 659.422 215.609L660.129 215.165C660.483 214.941 660.882 214.796 661.297 214.741C661.713 214.685 662.136 214.721 662.536 214.845C662.937 214.969 663.306 215.178 663.618 215.459C663.931 215.739 664.178 216.084 664.345 216.469C663.475 222.525 662.642 227.941 659.175 232.355C658.121 233.701 656.782 235.285 654.489 235.116C654.152 235.116 652.571 233.617 652.692 233.067Z" fill="white"/>
<path d="M565.505 97.9108C564.837 97.7745 564.161 97.6845 563.481 97.6416C558.163 97.0608 552.75 96.8286 547.575 95.609C533.408 92.2725 524.707 82.8013 521.481 68.9905C519.373 60.0156 519.078 47.6039 518.013 38.3703L515.041 14.6132L512.069 38.3703C511.014 47.588 510.703 60.0156 508.601 68.9905C505.375 82.8013 496.674 92.2725 482.507 95.609C477.331 96.8286 471.919 97.0608 466.601 97.6416C465.921 97.6845 465.245 97.7745 464.577 97.9108L442.863 100.35L464.746 102.842C465.424 102.986 466.114 103.066 466.806 103.079H466.865C470.976 103.454 475.139 103.607 479.202 104.235C493.132 106.838 503.204 114.435 507.91 128.573C509.267 132.511 510.203 136.581 510.703 140.716C511.468 147.785 511.715 154.907 512.058 162.013L515.015 188.32L517.998 161.997C518.34 154.891 518.588 147.769 519.352 140.7C519.85 136.564 520.786 132.494 522.145 128.557C526.852 114.419 536.902 106.822 550.853 104.22C554.917 103.607 559.08 103.438 563.186 103.063H563.249C563.94 103.05 564.628 102.971 565.304 102.826L587.192 100.334L565.505 97.9108Z" fill="white"/>
<path d="M591.171 55.8819C590.938 55.8356 590.702 55.8038 590.465 55.7869C588.599 55.6637 586.742 55.4274 584.905 55.0794C579.951 53.9127 576.91 50.6026 575.782 45.772C575.049 42.636 574.944 38.2964 574.57 35.076L573.516 26.7716L572.461 35.076C572.087 38.2964 571.982 42.636 571.249 45.772C570.116 50.6026 567.075 53.9127 562.126 55.0794C560.289 55.4274 558.432 55.6637 556.566 55.7869C556.329 55.8035 556.093 55.8352 555.86 55.8819L548.271 56.7319L555.918 57.6082C556.154 57.6572 556.394 57.6837 556.635 57.6875C558.068 57.8247 559.523 57.8828 560.946 58.094C565.816 59.0073 569.331 61.6628 570.959 66.6043C571.436 67.9728 571.765 69.3888 571.94 70.8278C572.208 73.2985 572.293 75.7903 572.414 78.2716L573.468 87.4735L574.522 78.2716C574.643 75.7903 574.728 73.2985 574.997 70.8278C575.172 69.3894 575.499 67.9737 575.972 66.6043C577.616 61.6628 581.137 59.0073 585.985 58.094C587.408 57.8828 588.863 57.8247 590.296 57.6875C590.539 57.684 590.781 57.6575 591.018 57.6082L598.666 56.7319L591.171 55.8819Z" fill="white"/>
</g>
<defs>
<clipPath id="clip0_8_37">
<rect width="730.045" height="417" fill="white"/>
</clipPath>
</defs>
</svg>
